<svg width="250" height="250" viewBox="0 0 250 250" fill="none" xmlns="http://www.w3.org/2000/svg">
<rect width="250" height="250" rx="125" fill="#F4F4F4"/>
<path d="M100.98 165.864C99.2197 156.776 105.749 136.017 109.233 126.773C110.395 127.323 120.115 125.43 123.232 120.91C125.727 117.294 129.963 115.874 132.035 115.229C134.786 114.374 139.371 114.496 140.227 116.573L141.144 118.711C144.139 127.323 141.531 140.414 139.677 146.258L132.83 147.479C127.646 139.075 130.303 128.83 132.28 124.758C130.177 127.592 124.272 130.581 121.582 131.721C121.46 139.234 109.967 165.131 107.46 166.78C105.455 168.1 102.305 166.72 100.98 165.864Z" fill="black"/>
<path fill-rule="evenodd" clip-rule="evenodd" d="M101.421 164.619L104.262 167.302L104.495 166.879C104.761 166.396 105.37 166.219 105.853 166.485C106.316 166.74 106.497 167.306 106.281 167.778C108.418 167.77 110.192 168.282 111.044 168.669C112.517 169.338 113.763 170.938 114.005 172.709C114.134 173.649 113.913 174.45 113.309 174.965C112.779 175.417 112.135 175.488 111.706 175.443C110.282 175.36 108.062 175.212 105.991 175.036C103.946 174.862 101.937 174.652 101.038 174.432C100.128 174.21 99.4905 173.714 99.1549 173.033M103.743 169.563L102.229 168.133L100.981 171.427L100.975 171.442C100.938 171.531 100.901 171.668 100.894 171.814C100.886 171.959 100.91 172.07 100.949 172.149C100.974 172.2 101.013 172.253 101.084 172.307C101.158 172.363 101.288 172.434 101.512 172.489M104.69 169.902L103.853 170.067L103.743 169.563M104.69 169.902C107.206 169.512 109.429 170.132 110.216 170.49C111.066 170.876 111.875 171.892 112.024 172.98C112.058 173.232 112.034 173.364 112.018 173.417C112.014 173.429 112.01 173.438 112.008 173.444C112.004 173.445 111.998 173.447 111.99 173.449C111.96 173.456 111.93 173.456 111.917 173.454L111.883 173.45L111.849 173.448C110.439 173.366 108.223 173.219 106.161 173.043C104.06 172.864 102.227 172.664 101.512 172.489M101.421 164.619L100.89 166.022ZM100.89 166.022L99.2567 170.334ZM99.2567 170.334L99.1217 170.69C98.9082 171.213 98.7207 172.153 99.1549 173.033" fill="black"/>
<path fill-rule="evenodd" clip-rule="evenodd" d="M138.526 145.415C139.078 145.415 139.526 145.863 139.526 146.415V146.507C139.826 146.389 140.147 146.273 140.478 146.167C141.445 145.86 142.62 145.604 143.668 145.727C144.877 145.869 145.848 146.3 146.492 147.102C147.121 147.887 147.309 148.868 147.309 149.836C147.309 150.667 147.103 151.377 146.548 151.846C146.092 152.23 145.53 152.31 145.288 152.344C145.268 152.347 145.25 152.349 145.235 152.352C145.08 152.375 144.913 152.395 144.724 152.417C143.881 152.515 142.597 152.664 139.988 153.479C137.954 154.114 136.652 154.457 135.772 154.529C135.315 154.566 134.882 154.54 134.482 154.383C134.063 154.219 133.787 153.954 133.585 153.708C133.4 153.483 133.303 153.21 133.248 153.031C133.183 152.824 133.132 152.588 133.089 152.346C133.004 151.861 132.94 151.27 132.894 150.661C132.802 149.441 132.775 148.06 132.807 147.114C132.826 146.562 133.288 146.13 133.84 146.149C134.392 146.167 134.824 146.63 134.806 147.182C134.777 148.048 134.801 149.357 134.888 150.511C134.932 151.088 134.99 151.606 135.059 151.999C135.094 152.197 135.128 152.344 135.159 152.443C135.165 152.462 135.17 152.477 135.174 152.489C135.188 152.504 135.197 152.511 135.202 152.515C135.207 152.519 135.208 152.52 135.21 152.52C135.21 152.52 135.21 152.52 135.21 152.52C135.22 152.524 135.316 152.559 135.61 152.535C136.231 152.485 137.32 152.217 139.392 151.57C142.19 150.695 143.64 150.529 144.481 150.432C144.655 150.412 144.803 150.395 144.932 150.375C144.932 150.375 144.932 150.375 144.932 150.375L144.933 150.375C145.093 150.35 145.167 150.339 145.233 150.32C145.239 150.318 145.244 150.317 145.249 150.315C145.272 150.26 145.309 150.123 145.309 149.836C145.309 149.094 145.16 148.639 144.932 148.354C144.718 148.087 144.309 147.816 143.435 147.713M145.233 150.346C145.232 150.345 145.234 150.341 145.24 150.335C145.236 150.343 145.233 150.346 145.233 150.346ZM138.526 145.415C137.973 145.415 137.526 145.863 137.526 146.415ZM141.084 148.073C140.223 148.347 139.441 148.707 139.001 148.944L137.526 149.741V146.415M141.084 148.073C141.967 147.792 142.815 147.641 143.435 147.713Z" fill="black"/>
<path fill-rule="evenodd" clip-rule="evenodd" d="M126.956 85.5552C127.012 86.1047 126.612 86.5952 126.062 86.6507C122.964 86.9638 118.394 87.78 114.737 89.1907C112.902 89.8987 111.377 90.7266 110.378 91.655C109.418 92.5464 109.027 93.4402 109.154 94.3926C109.257 94.71 109.551 95.29 110.125 95.8609C110.698 96.4301 111.54 96.9805 112.734 97.2488C113.272 97.3698 113.611 97.9048 113.49 98.4436C113.369 98.9825 112.834 99.3212 112.295 99.2001C110.707 98.8432 109.535 98.0939 108.715 97.2795L109.42 96.5702L108.715 97.2795C107.879 96.4481 107.397 95.5364 107.212 94.8812L107.196 94.8234L107.187 94.7641C106.899 92.9219 107.728 91.3867 109.017 90.1898C110.286 89.0103 112.082 88.0713 114.017 87.3248C117.9 85.8267 122.663 84.984 125.861 84.6608C126.41 84.6053 126.901 85.0057 126.956 85.5552Z" fill="black"/>
<path fill-rule="evenodd" clip-rule="evenodd" d="M108.879 95.7289C109.344 95.4304 109.963 95.5649 110.261 96.0295C111.196 97.4836 113.071 99.8429 115.608 102.092C118.148 104.343 121.295 106.434 124.771 107.433C125.302 107.586 125.608 108.139 125.456 108.67C125.303 109.201 124.749 109.508 124.218 109.355C120.359 108.246 116.954 105.957 114.282 103.589C111.608 101.219 109.613 98.72 108.579 97.1108C108.28 96.6462 108.415 96.0275 108.879 95.7289Z" fill="black"/>
<path fill-rule="evenodd" clip-rule="evenodd" d="M128.457 106.614C128.477 107.166 128.047 107.63 127.495 107.651C127.05 107.667 126.59 107.855 126.162 108.145C125.735 108.434 125.409 108.777 125.25 108.991C124.92 109.434 124.293 109.526 123.85 109.196C123.407 108.867 123.316 108.24 123.645 107.797C123.934 107.409 124.422 106.907 125.042 106.488C125.661 106.069 126.481 105.687 127.42 105.652C127.972 105.632 128.436 106.062 128.457 106.614Z" fill="black"/>
<path fill-rule="evenodd" clip-rule="evenodd" d="M119.678 95.9248C120.003 95.478 120.628 95.3792 121.075 95.7039C126.754 99.8325 128.407 104.538 128.457 106.628C128.47 107.18 128.033 107.638 127.481 107.651C126.929 107.664 126.471 107.227 126.458 106.675C126.426 105.325 125.177 101.158 119.899 97.3216C119.452 96.9969 119.353 96.3715 119.678 95.9248Z" fill="black"/>
<path fill-rule="evenodd" clip-rule="evenodd" d="M124.639 94.4294C124.739 94.9724 124.381 95.4943 123.838 95.595C121.784 95.9758 120.242 97.6726 119.754 98.464C119.463 98.9339 118.847 99.0796 118.377 98.7894C117.907 98.4991 117.762 97.883 118.052 97.4131C118.7 96.3634 120.652 94.1517 123.473 93.6285C124.016 93.5278 124.538 93.8864 124.639 94.4294Z" fill="black"/>
<path fill-rule="evenodd" clip-rule="evenodd" d="M131.881 95.4323C132.303 95.0757 132.934 95.1284 133.29 95.5501C133.631 95.953 134.319 97.0247 134.319 98.2553C134.319 98.8076 133.871 99.2553 133.319 99.2553C132.767 99.2553 132.319 98.8076 132.319 98.2553C132.319 97.9938 132.239 97.7013 132.111 97.4191C131.983 97.1371 131.834 96.9254 131.763 96.8416C131.407 96.4199 131.459 95.7889 131.881 95.4323Z" fill="black"/>
<path fill-rule="evenodd" clip-rule="evenodd" d="M132.051 103.517C132.426 103.411 132.981 103.353 133.494 103.681L133.494 103.681C133.912 103.948 134.164 104.353 134.224 104.812C134.278 105.22 134.17 105.59 134.059 105.855C133.962 106.083 133.835 106.301 133.698 106.496C134.001 106.597 134.446 106.657 135 106.684C135.291 106.698 135.585 106.703 135.876 106.706C135.913 106.707 135.95 106.707 135.988 106.708C136.234 106.71 136.483 106.713 136.702 106.722C136.938 106.732 137.222 106.751 137.466 106.811C137.582 106.84 137.78 106.9 137.969 107.036C138.188 107.195 138.438 107.499 138.438 107.942C138.438 108.254 138.426 108.754 138.061 109.172C137.904 109.353 137.724 109.466 137.608 109.534C137.54 109.574 137.444 109.626 137.359 109.672C137.317 109.695 137.278 109.716 137.246 109.733C137.068 109.832 136.87 109.886 136.741 109.918C136.588 109.955 136.416 109.988 136.239 110.016C135.883 110.073 135.453 110.123 135.013 110.166C134.129 110.252 133.148 110.314 132.513 110.345C131.962 110.372 131.493 109.947 131.466 109.395C131.439 108.844 131.864 108.375 132.416 108.348C132.553 108.341 132.708 108.333 132.874 108.323C132.872 108.322 132.871 108.322 132.869 108.321C132.545 108.191 132.192 107.99 131.917 107.666C131.624 107.322 131.465 106.894 131.465 106.416V106.201C131.259 106.385 131.072 106.571 130.93 106.726L130.925 106.732L130.919 106.738C130.544 107.133 129.897 107.693 129.178 107.982C128.815 108.128 128.335 108.245 127.826 108.134C127.27 108.013 126.832 107.653 126.552 107.139C126.288 106.654 126.467 106.047 126.952 105.782C127.432 105.52 128.033 105.694 128.301 106.169C128.332 106.162 128.375 106.149 128.432 106.126C128.77 105.991 129.182 105.662 129.462 105.368C129.814 104.985 130.39 104.437 131 104.03C131.303 103.828 131.667 103.626 132.051 103.517ZM132.637 105.432C132.637 105.433 132.635 105.433 132.632 105.433C132.636 105.432 132.637 105.432 132.637 105.432Z" fill="black"/>
<path fill-rule="evenodd" clip-rule="evenodd" d="M124.281 107.424C124.803 107.245 125.372 107.522 125.552 108.045C125.781 108.712 126.318 109.647 127.127 110.255C127.88 110.82 128.906 111.14 130.335 110.607L130.335 110.607C131.828 110.05 132.617 109.637 133 109.376C132.995 109.216 133.028 109.054 133.104 108.901C133.35 108.407 133.95 108.205 134.445 108.451C134.61 108.533 134.81 108.675 134.957 108.911C135.114 109.164 135.166 109.455 135.123 109.734C135.047 110.221 134.709 110.568 134.447 110.787C133.875 111.265 132.816 111.816 131.033 112.481L130.686 111.55L131.033 112.481C128.926 113.267 127.189 112.803 125.925 111.854C124.718 110.947 123.983 109.635 123.66 108.695C123.481 108.173 123.758 107.604 124.281 107.424ZM130.686 111.55L130.684 111.544L130.686 111.55C133.246 109.175 133.243 109.179 133.236 109.187C133.241 109.179 133.245 109.175 133.245 109.175" fill="black"/>
<path fill-rule="evenodd" clip-rule="evenodd" d="M159.666 103.799C159.665 104.259 159.579 104.816 159.408 105.482C158.665 108.383 156.469 109.706 155.327 110.018C154.794 110.164 154.245 109.85 154.099 109.317C153.953 108.785 154.267 108.235 154.8 108.089C155.377 107.931 156.937 107.07 157.471 104.986L157.471 104.986C157.576 104.574 157.63 104.264 157.653 104.034C157.33 104.018 157.022 103.846 156.844 103.548C156.561 103.074 156.716 102.46 157.191 102.177C157.409 102.047 157.73 101.908 158.104 101.9C158.527 101.892 158.994 102.059 159.313 102.5C159.59 102.883 159.667 103.356 159.666 103.799ZM158.233 103.885C158.233 103.885 158.231 103.886 158.227 103.888C158.231 103.886 158.233 103.885 158.233 103.885Z" fill="black"/>
<path fill-rule="evenodd" clip-rule="evenodd" d="M153.635 105.262C153.244 105.921 152.974 106.813 152.853 107.439C152.749 107.981 152.225 108.336 151.683 108.232C151.14 108.128 150.785 107.604 150.889 107.061C151.035 106.302 151.366 105.167 151.915 104.241C152.422 103.388 153.42 102.249 154.93 102.613C155.466 102.743 155.797 103.283 155.667 103.82C155.538 104.357 154.998 104.687 154.461 104.558C154.35 104.531 154.069 104.532 153.635 105.262Z" fill="black"/>
<path fill-rule="evenodd" clip-rule="evenodd" d="M156.065 103.016C156.14 104.013 155.924 105.008 155.653 105.816C155.373 106.649 155.01 107.36 154.743 107.784C154.448 108.251 153.83 108.39 153.363 108.095C152.896 107.8 152.757 107.183 153.052 106.716C153.234 106.427 153.528 105.861 153.756 105.181C153.986 104.494 154.124 103.766 154.067 103.124L154.062 103.066L154.064 103.008C154.077 102.543 154.199 101.783 154.656 101.194C154.904 100.876 155.268 100.588 155.765 100.474C156.253 100.362 156.754 100.445 157.236 100.65C158 100.976 158.33 101.675 158.461 102.271C158.592 102.869 158.573 103.545 158.498 104.175C158.347 105.448 157.929 106.835 157.596 107.723L157.571 107.789L157.538 107.85C157.199 108.474 156.562 109.217 155.642 109.87L155.642 109.87C154.114 110.953 151.772 111.809 148.577 111.482L147.592 111.381L147.684 110.394C147.733 109.866 147.898 109.068 148.246 108.324C148.516 107.749 148.954 107.082 149.644 106.674C149.782 106.098 150.004 105.415 150.33 104.874C150.539 104.527 150.884 104.079 151.422 103.872C152.066 103.623 152.694 103.817 153.182 104.217C153.608 104.568 153.67 105.198 153.319 105.625C153.009 106.002 152.48 106.094 152.067 105.868C152.06 105.88 152.052 105.892 152.044 105.906C151.798 106.314 151.6 106.999 151.506 107.543L151.401 108.148L150.814 108.328C150.574 108.402 150.3 108.654 150.058 109.172C149.999 109.296 149.949 109.424 149.904 109.552C152.017 109.558 153.517 108.924 154.485 108.238M156.065 103.016C156.071 102.915 156.089 102.796 156.12 102.683C156.157 102.55 156.202 102.466 156.233 102.425C156.266 102.428 156.329 102.44 156.43 102.481C156.447 102.505 156.478 102.567 156.508 102.701C156.569 102.982 156.576 103.403 156.512 103.939C156.39 104.967 156.045 106.149 155.75 106.95C155.56 107.272 155.153 107.764 154.485 108.238M156.418 102.467C156.418 102.467 156.421 102.469 156.426 102.476C156.42 102.471 156.418 102.468 156.418 102.467ZM156.205 102.424C156.205 102.424 156.206 102.424 156.207 102.424Z" fill="black"/>
<path fill-rule="evenodd" clip-rule="evenodd" d="M134.014 108.644C134.391 108.24 135.023 108.219 135.427 108.596C136.669 109.755 138.813 111.195 141.155 111.752C143.443 112.298 145.868 112.002 147.953 109.799C148.333 109.398 148.966 109.381 149.367 109.761C149.768 110.14 149.785 110.773 149.406 111.174C146.727 114.005 143.515 114.37 140.691 113.698C137.922 113.038 135.48 111.381 134.062 110.057C133.658 109.68 133.637 109.048 134.014 108.644Z" fill="black"/>
<path fill-rule="evenodd" clip-rule="evenodd" d="M134.269 108.662C134.822 108.662 135.269 109.109 135.269 109.662C135.269 110.303 135.192 111.322 134.96 112.363C134.735 113.377 134.333 114.558 133.592 115.394C133.226 115.807 132.594 115.846 132.181 115.48C131.767 115.114 131.729 114.482 132.095 114.068C132.495 113.616 132.806 112.839 133.008 111.929C133.204 111.045 133.269 110.173 133.269 109.662C133.269 109.109 133.717 108.662 134.269 108.662Z" fill="black"/>
<path fill-rule="evenodd" clip-rule="evenodd" d="M109.993 111.551C110.437 111.88 110.53 112.506 110.201 112.95C109.004 114.566 107.59 117.179 107.184 119.746C106.983 121.019 107.038 122.227 107.438 123.287C107.832 124.329 108.583 125.294 109.903 126.066C110.379 126.345 110.54 126.958 110.261 127.434C109.982 127.911 109.369 128.071 108.892 127.792C107.199 126.801 106.131 125.486 105.567 123.994C105.01 122.52 104.971 120.94 105.209 119.434C105.682 116.443 107.281 113.532 108.594 111.759C108.923 111.316 109.549 111.222 109.993 111.551Z" fill="black"/>
<path fill-rule="evenodd" clip-rule="evenodd" d="M186.428 94.5463C186.902 94.8304 187.056 95.4447 186.771 95.9183L185.346 98.2946C185.062 98.7681 184.447 98.9217 183.974 98.6376C183.5 98.3534 183.347 97.7391 183.631 97.2656L185.056 94.8893C185.341 94.4157 185.955 94.2621 186.428 94.5463Z" fill="black"/>
<path fill-rule="evenodd" clip-rule="evenodd" d="M188.814 98.8535C188.84 99.4052 188.413 99.8732 187.861 99.8988L185.232 100.021C184.68 100.047 184.212 99.6204 184.186 99.0687C184.161 98.517 184.587 98.049 185.139 98.0233L187.769 97.901C188.32 97.8753 188.788 98.3018 188.814 98.8535Z" fill="black"/>
<path fill-rule="evenodd" clip-rule="evenodd" d="M184.037 99.6806C184.475 99.3438 185.102 99.4257 185.439 99.8635L187.023 101.923C187.36 102.361 187.278 102.989 186.84 103.325C186.403 103.662 185.775 103.58 185.438 103.142L183.854 101.083C183.517 100.645 183.599 100.017 184.037 99.6806Z" fill="black"/>
<path fill-rule="evenodd" clip-rule="evenodd" d="M89.0704 174.09H132.862C133.415 174.09 133.862 174.537 133.862 175.09C133.862 175.642 133.415 176.09 132.862 176.09H91.0704V196C91.0704 196.552 90.6227 197 90.0704 197C89.5181 197 89.0704 196.552 89.0704 196V174.09Z" fill="black"/>
<path fill-rule="evenodd" clip-rule="evenodd" d="M126.598 153.241H162.615C163.167 153.241 163.615 153.689 163.615 154.241C163.615 154.793 163.167 155.241 162.615 155.241H128.598V179.737C128.598 180.289 128.15 180.737 127.598 180.737C127.045 180.737 126.598 180.289 126.598 179.737V153.241Z" fill="black"/>
<path fill-rule="evenodd" clip-rule="evenodd" d="M156.35 124.015H185.756C186.308 124.015 186.756 124.463 186.756 125.015C186.756 125.568 186.308 126.015 185.756 126.015H158.35V159.071C158.35 159.623 157.902 160.071 157.35 160.071C156.798 160.071 156.35 159.623 156.35 159.071V124.015Z" fill="black"/>
<path fill-rule="evenodd" clip-rule="evenodd" d="M180.736 101.77C181.288 101.77 181.736 102.218 181.736 102.77V129.784C181.736 130.337 181.288 130.784 180.736 130.784C180.183 130.784 179.736 130.337 179.736 129.784V102.77C179.736 102.218 180.183 101.77 180.736 101.77Z" fill="black"/>
<path fill-rule="evenodd" clip-rule="evenodd" d="M180.736 92.3444C181.288 92.3444 181.736 92.7921 181.736 93.3444V95.6414C181.736 96.1937 181.288 96.6414 180.736 96.6414C180.183 96.6414 179.736 96.1937 179.736 95.6414V93.3444C179.736 92.7921 180.183 92.3444 180.736 92.3444Z" fill="black"/>
<path fill-rule="evenodd" clip-rule="evenodd" d="M113.47 100.776C113.535 101.325 113.144 101.822 112.596 101.888L88.7842 104.742C88.4327 105.643 88.1372 106.948 88.2393 108.344C88.3518 109.881 88.9427 111.521 90.4904 112.896L125.132 108.911C125.68 108.848 126.176 109.242 126.239 109.791C126.302 110.339 125.909 110.835 125.36 110.898L89.8762 114.98L89.5509 114.719C87.2746 112.896 86.3988 110.597 86.2447 108.49C86.093 106.416 86.6357 104.521 87.2024 103.374L87.4422 102.889L112.358 99.9023C112.906 99.8366 113.404 100.228 113.47 100.776Z" fill="black"/>
<path fill-rule="evenodd" clip-rule="evenodd" d="M150.314 107.679C150.366 108.228 149.964 108.717 149.414 108.77L137.378 109.926C136.828 109.979 136.339 109.576 136.287 109.027C136.234 108.477 136.637 107.988 137.186 107.936L149.223 106.779C149.772 106.726 150.261 107.129 150.314 107.679Z" fill="black"/>
<path fill-rule="evenodd" clip-rule="evenodd" d="M166.071 94.7111L178.738 97.666L177.153 98.9524C177.044 99.041 176.895 99.2404 176.858 99.4761C176.83 99.6548 176.843 99.9911 177.295 100.471L178.255 101.49L166.246 106.933L158.185 107.493C157.634 107.532 157.157 107.116 157.118 106.565C157.08 106.014 157.496 105.537 158.047 105.498L165.749 104.963L175.089 100.729C174.863 100.203 174.803 99.673 174.882 99.1677C174.9 99.0536 174.924 98.9433 174.954 98.8371L165.924 96.7303L124.412 100.187C123.862 100.233 123.379 99.8241 123.333 99.2737C123.287 98.7233 123.696 98.24 124.246 98.1941L166.071 94.7111Z" fill="black"/>
<path d="M84.3225 103.868L87.895 103.483C85.4173 109.034 88.2575 112.81 90.0704 114.279L85.9008 114.889C82.4158 110.645 83.3142 105.895 84.3225 103.868Z" fill="black"/>
<path d="M176.948 101.424C175.622 100.04 176.367 98.3916 176.919 97.8593L181.954 99.1018L176.948 101.424Z" fill="black"/>
<path fill-rule="evenodd" clip-rule="evenodd" d="M165.319 106.469C161.77 101.853 163.863 96.9591 165.326 95.1019L166.897 96.3395C165.73 97.8211 164.141 101.657 166.904 105.25L165.319 106.469Z" fill="black"/>
<path fill-rule="evenodd" clip-rule="evenodd" d="M146.907 64.96C147.422 64.7608 148.002 65.0168 148.201 65.532C148.302 65.7938 148.323 66.1149 148.329 66.3469C148.336 66.6236 148.322 66.9538 148.283 67.3142C148.207 68.0244 148.03 68.9021 147.691 69.7714C147.536 70.2624 147.45 70.8603 147.573 71.4056C147.686 71.9085 147.989 72.4379 148.777 72.8497C149.434 73.157 149.965 73.6391 150.181 74.307C150.402 74.9914 150.225 75.6613 149.877 76.1796C149.333 76.9923 148.324 77.5541 147.137 77.7286C146.199 82.4743 143.778 84.8787 141.327 86.1234C140.067 86.7634 138.837 87.0781 137.887 87.2735C137.65 87.3224 137.429 87.3641 137.231 87.4009C137.199 87.4067 137.168 87.4124 137.138 87.418C136.976 87.448 136.836 87.4741 136.709 87.4996C136.558 87.53 136.45 87.5548 136.374 87.5767C136.345 87.5852 136.327 87.5914 136.317 87.5948C135.851 87.8592 135.256 87.7088 134.973 87.2489C134.683 86.7785 134.83 86.1626 135.3 85.8731C135.482 85.7612 135.678 85.6961 135.821 85.6548C135.977 85.61 136.147 85.5725 136.315 85.5388C136.458 85.5101 136.616 85.4808 136.777 85.4509C136.806 85.4455 136.836 85.44 136.865 85.4345C137.061 85.3982 137.267 85.3594 137.484 85.3146C138.355 85.1353 139.389 84.8647 140.421 84.3402C142.425 83.3228 144.582 81.2761 145.299 76.633L145.432 75.7757L146.299 75.7859C147.374 75.7984 148.019 75.3601 148.216 75.0665C148.26 75.0003 148.273 74.9557 148.277 74.9366C148.278 74.9273 148.278 74.923 148.278 74.9226C148.278 74.9224 148.278 74.9227 148.278 74.9221C148.278 74.9214 148.276 74.9159 148.269 74.9052C148.262 74.8943 148.249 74.8762 148.225 74.8522C148.176 74.8035 148.083 74.7317 147.919 74.6562L147.898 74.6467L147.878 74.6363C146.545 73.9488 145.864 72.9217 145.622 71.8453C145.39 70.8174 145.572 69.8216 145.798 69.127L145.807 69.098L145.818 69.0696C146.087 68.3878 146.232 67.6777 146.294 67.1006C146.325 66.8132 146.334 66.5717 146.33 66.3959C146.326 66.2621 146.316 66.2049 146.317 66.2008C146.154 65.6995 146.41 65.1525 146.907 64.96Z" fill="black"/>
<path d="M143.974 73.2052C144.272 73.2087 144.518 72.8495 144.523 72.4029C144.528 71.9563 144.291 71.5915 143.993 71.588C143.696 71.5845 143.45 71.9437 143.445 72.3903C143.44 72.8369 143.677 73.2017 143.974 73.2052Z" fill="black"/>
<path fill-rule="evenodd" clip-rule="evenodd" d="M143.806 70.2823C143.584 70.3318 143.36 70.4881 143.241 70.6154C142.864 71.0188 142.231 71.0399 141.828 70.6627C141.425 70.2854 141.403 69.6526 141.781 69.2492C142.099 68.9086 142.66 68.4887 143.37 68.3303C144.148 68.1568 145.038 68.3182 145.806 69.0712C146.201 69.4579 146.207 70.091 145.82 70.4854C145.434 70.8798 144.801 70.886 144.406 70.4994C144.26 70.3558 144.144 70.3041 144.067 70.2833C143.988 70.2618 143.904 70.2605 143.806 70.2823Z" fill="black"/>
<path fill-rule="evenodd" clip-rule="evenodd" d="M138.992 78.2055C139.455 77.9046 140.075 78.036 140.376 78.4991C140.722 79.0316 140.968 79.1872 141.155 79.2369C141.358 79.2909 141.745 79.2882 142.519 78.9281C143.02 78.695 143.614 78.9119 143.848 79.4126C144.081 79.9132 143.864 80.5081 143.363 80.7412C142.421 81.18 141.509 81.401 140.64 81.1695C139.755 80.9337 139.157 80.2944 138.699 79.5889C138.398 79.1259 138.529 78.5065 138.992 78.2055Z" fill="black"/>
<path fill-rule="evenodd" clip-rule="evenodd" d="M133.366 69.4562C133.868 69.6852 134.09 70.2782 133.861 70.7808C133.849 70.8069 133.829 70.862 133.817 70.9324C133.804 71.0019 133.803 71.0633 133.809 71.1099C133.815 71.1534 133.826 71.1739 133.832 71.1834L133.832 71.1835C133.836 71.1895 133.856 71.219 133.93 71.2566C134.421 71.5077 134.617 72.11 134.366 72.6019C134.114 73.0938 133.512 73.289 133.02 73.0379C132.26 72.6499 131.912 72.0015 131.827 71.3789C131.75 70.8116 131.889 70.2855 132.041 69.9518C132.27 69.4492 132.863 69.2273 133.366 69.4562Z" fill="black"/>
<path d="M123.716 66.1627C122.695 71.7478 125.889 75.9521 128.205 79.1842C130.678 77.8481 134.731 74.6708 133.177 74.3279C131.543 73.9675 129.819 69.5106 131.406 68.1472C133.268 66.5477 134.946 68.9679 135.266 70.803L136.765 68.21C136.341 66.3963 136.175 63.2149 138.902 64.9984C141.629 66.7819 145.629 66.3147 147.288 65.8582C150.559 63.5167 155.641 58.0549 149.801 54.9403C144.943 52.3497 138.622 55.6249 134.763 58.5678C132.15 57.878 125.108 58.5476 123.716 66.1627Z" fill="black"/>
<path fill-rule="evenodd" clip-rule="evenodd" d="M127.748 78.0408C128.173 77.6879 128.803 77.7462 129.156 78.1711C129.78 78.9228 130.302 79.6748 130.643 80.606C130.984 81.5382 131.12 82.5796 131.081 83.8876C131.064 84.4396 130.603 84.8738 130.051 84.8573C129.499 84.8408 129.065 84.3799 129.082 83.8279C129.115 82.6903 128.994 81.9187 128.765 81.2938C128.536 80.668 128.174 80.1189 127.617 79.449C127.264 79.0241 127.323 78.3937 127.748 78.0408Z" fill="black"/>
<path fill-rule="evenodd" clip-rule="evenodd" d="M127.858 84.7805C127.732 85.3385 127.844 86.1934 128.034 86.8562C128.186 87.3871 127.879 87.9409 127.348 88.0931C126.817 88.2453 126.264 87.9383 126.111 87.4074C125.888 86.628 125.672 85.3863 125.906 84.342C126.027 83.804 126.298 83.1923 126.883 82.7916C127.484 82.3797 128.22 82.3251 128.978 82.4986C130.554 82.8588 132.864 83.7902 134.725 84.8308C135.656 85.3508 136.53 85.9289 137.158 86.515C137.47 86.8065 137.763 87.1378 137.961 87.5029C138.16 87.8691 138.311 88.3616 138.165 88.8972C138.019 89.4301 137.47 89.7444 136.937 89.5992C136.438 89.4634 136.131 88.9737 136.213 88.4748C136.21 88.4695 136.207 88.4636 136.203 88.4571C136.148 88.3548 136.024 88.1922 135.793 87.977C135.335 87.5496 134.62 87.0629 133.749 86.5765C132.01 85.6042 129.88 84.7562 128.533 84.4483L128.533 84.4483C128.327 84.4012 128.194 84.4008 128.118 84.4103C128.047 84.4191 128.021 84.4364 128.013 84.4417C127.999 84.4515 127.917 84.5174 127.858 84.7805ZM136.228 88.5102C136.228 88.5102 136.227 88.5093 136.227 88.5075C136.228 88.5093 136.228 88.5102 136.228 88.5102Z" fill="black"/>
<path fill-rule="evenodd" clip-rule="evenodd" d="M136.466 90.2095C136.842 89.8042 137.474 89.7799 137.88 90.1551C138.998 91.1904 139.745 92.0979 140.245 93.1092C140.744 94.1179 140.959 95.1576 141.122 96.3806C141.195 96.928 140.811 97.431 140.263 97.504C139.716 97.577 139.213 97.1923 139.14 96.6449C138.986 95.4916 138.805 94.7095 138.452 93.9954C138.101 93.2838 137.541 92.5675 136.521 91.6226C136.116 91.2474 136.091 90.6147 136.466 90.2095Z" fill="black"/>
<path fill-rule="evenodd" clip-rule="evenodd" d="M91.0261 132.024C91.3057 132.275 91.4483 132.629 91.4604 132.96C91.4781 133.446 91.2233 133.989 90.662 134.234M91.0261 132.024C91.4194 132.055 91.7866 132.101 92.1147 132.161C92.457 132.225 92.7277 132.3 92.927 132.38C92.9786 132.4 93.0226 132.42 93.0599 132.439C93.0457 132.458 93.0295 132.479 93.0108 132.501C91.9397 133.803 91.1975 134.951 90.8166 136.178C90.4288 137.427 90.4441 138.662 90.7176 140.084C90.8218 140.626 91.346 140.982 91.8884 140.877C92.4307 140.773 92.7859 140.249 92.6816 139.707C92.4483 138.493 92.4659 137.611 92.7266 136.771C92.9944 135.909 93.5472 134.997 94.5549 133.773L93.7828 133.137L94.5549 133.773C94.8436 133.422 95.0862 133 95.1359 132.517C95.1904 131.987 94.999 131.527 94.6849 131.183C94.3974 130.869 94.0225 130.664 93.671 130.523C93.3092 130.378 92.9008 130.273 92.4787 130.195C90.8164 129.887 88.5004 129.925 86.6361 130.093L86.6359 130.093C85.9546 130.155 85.5037 130.686 85.456 131.27C85.409 131.846 85.7556 132.435 86.3974 132.622L86.3975 132.622L88.2524 133.165C82.2077 136.275 79.3541 140.693 78.4119 145.219C77.5767 149.231 78.2603 153.239 79.3925 156.374C71.0749 151.621 65.1855 151.16 60.7226 153.313C56.4617 155.369 53.8013 159.698 51.5988 163.907C46.8633 155.63 40.106 153.833 36.9093 154.125C36.3592 154.175 35.954 154.661 36.0041 155.211C36.0541 155.761 36.5406 156.166 37.0906 156.116C39.5632 155.891 46.035 157.383 50.4341 165.954C50.9068 166.875 52.2813 166.955 52.7903 165.959L52.7903 165.959C55.1589 161.322 57.6392 157.021 61.5917 155.114C65.435 153.26 71.0341 153.535 80.0194 159.073L80.0195 159.073C80.6056 159.434 81.2396 159.252 81.6058 158.939C81.9749 158.622 82.2587 158.007 81.959 157.362M89.8619 132.401L89.8616 132.401ZM81.959 157.362C80.5429 154.316 79.4749 149.926 80.3699 145.626ZM80.3699 145.626C81.2513 141.393 84.0603 137.117 90.6617 134.234Z" fill="black"/>
</svg>
