<svg width="250" height="250" viewBox="0 0 250 250" fill="none" xmlns="http://www.w3.org/2000/svg">
<rect width="250" height="250" rx="125" fill="#F4F4F4"/>
<path fill-rule="evenodd" clip-rule="evenodd" d="M41.518 121.733C41.1192 121.733 40.7959 122.057 40.7959 122.456C40.7959 122.854 41.1192 123.178 41.518 123.178C41.9169 123.178 42.2402 122.854 42.2402 122.456C42.2402 122.057 41.9169 121.733 41.518 121.733ZM38.7959 122.456C38.7959 120.952 40.0146 119.733 41.518 119.733C43.0214 119.733 44.2402 120.952 44.2402 122.456C44.2402 123.959 43.0214 125.178 41.518 125.178C40.0146 125.178 38.7959 123.959 38.7959 122.456Z" fill="black"/>
<path fill-rule="evenodd" clip-rule="evenodd" d="M50.5309 123.844C48.782 123.474 46.6598 123.454 44.9949 123.626C44.4456 123.682 43.9544 123.283 43.8978 122.733C43.8413 122.184 44.2408 121.693 44.7902 121.636C46.5989 121.45 48.9388 121.463 50.9446 121.887C51.946 122.099 52.9217 122.425 53.7144 122.922C54.5145 123.425 55.1929 124.147 55.4333 125.15C55.6326 125.981 55.6041 126.741 55.3753 127.414C55.1476 128.084 54.7428 128.607 54.283 129.003C53.3963 129.766 52.2559 130.102 51.473 130.199C48.918 130.603 45.883 130.723 43.4365 130.159C42.2099 129.877 41.048 129.404 40.1774 128.631C39.2744 127.83 38.7295 126.742 38.7295 125.383C38.7295 124.831 39.1772 124.383 39.7295 124.383C40.2818 124.383 40.7295 124.831 40.7295 125.383C40.7295 126.147 41.0115 126.697 41.5049 127.135C42.0307 127.602 42.8346 127.968 43.8855 128.21C45.9883 128.695 48.7471 128.607 51.1776 128.221L51.1971 128.218L51.2167 128.215C51.7438 128.153 52.4764 127.919 52.9784 127.487C53.2169 127.282 53.3882 127.046 53.4816 126.771C53.5738 126.499 53.6112 126.129 53.4884 125.616C53.4067 125.275 53.1622 124.937 52.6506 124.616C52.1316 124.29 51.4068 124.029 50.5309 123.844Z" fill="black"/>
<path fill-rule="evenodd" clip-rule="evenodd" d="M43.6377 126.9C43.9704 126.9 44.2402 126.63 44.2402 126.297C44.2402 125.964 43.9704 125.695 43.6377 125.695C43.3049 125.695 43.0351 125.964 43.0351 126.297C43.0351 126.63 43.3049 126.9 43.6377 126.9ZM42.2402 126.297C42.2402 125.525 42.8659 124.9 43.6377 124.9C44.4094 124.9 45.0351 125.525 45.0351 126.297C45.0351 127.069 44.4094 127.695 43.6377 127.695C42.8659 127.695 42.2402 127.069 42.2402 126.297Z" fill="black"/>
<path fill-rule="evenodd" clip-rule="evenodd" d="M47.0157 126.9C47.22 126.9 47.552 126.719 47.552 126.297C47.552 125.876 47.22 125.695 47.0157 125.695C46.8113 125.695 46.4793 125.876 46.4793 126.297C46.4793 126.719 46.8113 126.9 47.0157 126.9ZM45.552 126.297C45.552 125.49 46.2438 124.9 47.0157 124.9C47.7876 124.9 48.4793 125.49 48.4793 126.297C48.4793 127.105 47.7876 127.695 47.0157 127.695C46.2438 127.695 45.552 127.105 45.552 126.297Z" fill="black"/>
<path fill-rule="evenodd" clip-rule="evenodd" d="M50.3938 126.9C50.7266 126.9 50.9963 126.63 50.9963 126.297C50.9963 125.964 50.7266 125.695 50.3938 125.695C50.061 125.695 49.7912 125.964 49.7912 126.297C49.7912 126.63 50.061 126.9 50.3938 126.9ZM48.9963 126.297C48.9963 125.525 49.622 124.9 50.3938 124.9C51.1655 124.9 51.7912 125.525 51.7912 126.297C51.7912 127.069 51.1655 127.695 50.3938 127.695C49.622 127.695 48.9963 127.069 48.9963 126.297Z" fill="black"/>
<path fill-rule="evenodd" clip-rule="evenodd" d="M172.202 73.5132C171.877 73.5132 171.613 73.7773 171.613 74.1029C171.613 74.4286 171.877 74.6926 172.202 74.6926C172.528 74.6926 172.792 74.4286 172.792 74.1029C172.792 73.7773 172.528 73.5132 172.202 73.5132ZM169.613 74.1029C169.613 72.6727 170.772 71.5132 172.202 71.5132C173.632 71.5132 174.792 72.6727 174.792 74.1029C174.792 75.5332 173.632 76.6926 172.202 76.6926C170.772 76.6926 169.613 75.5332 169.613 74.1029Z" fill="black"/>
<path fill-rule="evenodd" clip-rule="evenodd" d="M174.326 72.712C174.326 72.1597 174.773 71.712 175.326 71.712H181.385C182.014 71.712 182.883 71.7576 183.512 72.3957C184.125 73.0169 184.264 73.9466 184.264 74.9563C184.264 75.6157 184.262 76.3367 184.26 77.0395C184.257 78.3877 184.253 79.6687 184.264 80.3177C184.272 80.8273 184.151 81.4414 183.74 81.9656C183.312 82.5125 182.663 82.8408 181.857 82.9185C180.618 83.0377 175.875 82.969 173.717 82.9231C173.154 82.9209 172.366 82.7657 171.692 82.2549C170.966 81.7045 170.474 80.8171 170.474 79.5852V77.4811C170.474 76.9288 170.922 76.4811 171.474 76.4811C172.026 76.4811 172.474 76.9288 172.474 77.4811V79.5852C172.474 80.2296 172.702 80.5111 172.9 80.6607C173.145 80.8462 173.478 80.9231 173.729 80.9231H173.739L173.75 80.9233C175.98 80.9709 180.575 81.0327 181.665 80.9277C182.023 80.8932 182.131 80.7772 182.166 80.7327C182.218 80.6654 182.267 80.5408 182.264 80.3491C182.253 79.6821 182.257 78.3641 182.26 77.0005C182.262 76.3042 182.264 75.5959 182.264 74.9563C182.264 74.0023 182.098 73.8098 182.088 73.7998C182.087 73.7993 182.085 73.7966 182.074 73.791C182.061 73.7843 182.033 73.7716 181.978 73.7585C181.859 73.7296 181.678 73.712 181.385 73.712H175.326C174.773 73.712 174.326 73.2643 174.326 72.712Z" fill="black"/>
<path fill-rule="evenodd" clip-rule="evenodd" d="M173.694 75.4605C174.005 75.0042 174.628 74.8865 175.084 75.1976L177.998 77.1847C178.455 77.4958 178.572 78.118 178.261 78.5743C177.95 79.0306 177.328 79.1483 176.872 78.8372L173.957 76.8501C173.501 76.5389 173.383 75.9168 173.694 75.4605Z" fill="black"/>
<path fill-rule="evenodd" clip-rule="evenodd" d="M183.468 72.4303C183.843 72.8358 183.818 73.4685 183.413 73.8435L178.114 78.745C177.709 79.12 177.076 79.0953 176.701 78.6899C176.326 78.2845 176.351 77.6518 176.756 77.2768L182.055 72.3753C182.46 72.0003 183.093 72.0249 183.468 72.4303Z" fill="black"/>
<path fill-rule="evenodd" clip-rule="evenodd" d="M178.073 76.1093C178.465 75.72 179.098 75.722 179.487 76.1137L182.383 79.0281C182.773 79.4199 182.771 80.0531 182.379 80.4423C181.987 80.8316 181.354 80.8296 180.965 80.4379L178.069 77.5235C177.679 77.1317 177.681 76.4985 178.073 76.1093Z" fill="black"/>
<path fill-rule="evenodd" clip-rule="evenodd" d="M176.188 76.0121C176.634 76.3386 176.73 76.9644 176.404 77.4098L174.267 80.3242C173.941 80.7697 173.315 80.866 172.87 80.5395C172.424 80.213 172.328 79.5872 172.654 79.1418L174.791 76.2274C175.117 75.782 175.743 75.6856 176.188 76.0121Z" fill="black"/>
<path fill-rule="evenodd" clip-rule="evenodd" d="M177.718 162.589C177.668 162.63 177.618 162.687 177.575 162.749L177.554 162.779L177.531 162.808C176.44 164.165 174.215 166.94 173.742 167.562C173.751 167.586 173.766 167.616 173.787 167.65C173.811 167.687 173.833 167.713 173.844 167.725C175.32 169.133 176.08 169.884 176.592 170.39C176.937 170.731 177.17 170.961 177.433 171.205L177.44 171.211L181.809 175.421L181.823 175.435C181.822 175.435 181.828 175.441 181.839 175.449C181.85 175.458 181.864 175.468 181.879 175.476C181.911 175.495 181.935 175.502 181.947 175.504C181.949 175.504 181.951 175.504 181.952 175.504C181.952 175.504 181.952 175.504 181.952 175.504C181.954 175.504 181.964 175.5 181.981 175.49C181.998 175.478 182.026 175.458 182.063 175.421L183.145 174.338C183.535 173.947 184.168 173.947 184.559 174.337C184.95 174.727 184.95 175.361 184.56 175.751L183.479 176.834C182.913 177.401 182.24 177.58 181.618 177.476C181.073 177.385 180.647 177.093 180.395 176.836L176.065 172.664C175.812 172.428 175.559 172.179 175.192 171.817C174.65 171.283 173.859 170.504 172.451 169.16L172.442 169.152L172.434 169.143C172.22 168.929 171.956 168.571 171.821 168.121C171.676 167.638 171.67 166.993 172.111 166.402C172.535 165.837 174.845 162.956 175.953 161.579C176.191 161.245 176.619 160.793 177.254 160.612C178.001 160.398 178.767 160.63 179.432 161.248C179.432 161.248 179.432 161.248 179.432 161.248C179.495 161.307 179.57 161.377 179.656 161.457C180.666 162.398 183.153 164.715 185.296 166.506C185.72 166.86 185.776 167.491 185.422 167.914C185.068 168.338 184.437 168.395 184.014 168.041C181.825 166.212 179.299 163.858 178.293 162.921C178.207 162.841 178.132 162.771 178.07 162.713C177.924 162.578 177.836 162.545 177.812 162.538C177.807 162.536 177.804 162.536 177.801 162.535C177.802 162.535 177.802 162.535 177.803 162.535C177.803 162.535 177.803 162.535 177.803 162.535C177.803 162.535 177.802 162.535 177.8 162.535C177.799 162.535 177.798 162.535 177.799 162.535C177.799 162.535 177.799 162.535 177.801 162.535C177.793 162.538 177.764 162.55 177.718 162.589Z" fill="black"/>
<path fill-rule="evenodd" clip-rule="evenodd" d="M176.652 161.331C177.203 161.301 177.675 161.724 177.705 162.275C177.834 164.642 178.67 168.127 182.839 169.458C183.365 169.626 183.656 170.189 183.488 170.715C183.32 171.241 182.757 171.531 182.231 171.363C176.86 169.649 175.852 165.044 175.708 162.384C175.678 161.833 176.101 161.361 176.652 161.331Z" fill="black"/>
<path fill-rule="evenodd" clip-rule="evenodd" d="M188.922 169.346C189.197 169.513 189.561 169.803 189.733 170.239C189.888 170.633 189.776 171.065 189.484 171.337C189.75 171.646 189.809 172.1 189.598 172.477C189.116 173.339 188.541 173.925 187.831 174.156C187.104 174.393 186.482 174.177 186.108 173.997L186.108 173.997C185.515 173.711 185.158 173.061 185.025 172.452C184.877 171.775 184.952 170.964 185.386 170.139L185.386 170.139C185.964 169.043 187.045 168.835 187.844 168.957C188.239 169.018 188.614 169.16 188.922 169.346ZM188.043 171.257C187.998 171.204 187.957 171.145 187.923 171.081C187.913 171.074 187.9 171.066 187.885 171.057C187.798 171.004 187.672 170.954 187.54 170.934C187.409 170.914 187.321 170.93 187.274 170.948C187.245 170.96 187.203 170.981 187.155 171.072L186.271 170.605L187.155 171.071C186.936 171.487 186.934 171.819 186.979 172.026C187 172.121 187.03 172.189 187.054 172.229C187.161 172.271 187.196 172.259 187.212 172.254L187.212 172.254C187.247 172.243 187.492 172.144 187.853 171.5C187.905 171.407 187.969 171.326 188.043 171.257ZM187.074 172.26C187.077 172.263 187.079 172.265 187.079 172.265C187.079 172.265 187.077 172.263 187.074 172.26Z" fill="black"/>
<path fill-rule="evenodd" clip-rule="evenodd" d="M187.694 169.026C187.254 169.028 186.798 169.19 186.361 169.561L186.36 169.561C185.48 170.309 185.215 171.574 185.262 172.185L185.262 172.185C185.286 172.492 185.425 173.022 185.748 173.452C186.041 173.842 186.492 174.169 187.267 174.179C187.83 174.187 188.299 174.101 188.681 173.972C188.27 173.818 188.06 173.493 187.962 173.287C187.771 172.888 187.734 172.385 187.726 172.01L187.726 172.007L187.726 172.007C187.716 171.529 187.754 170.989 187.808 170.496L187.808 170.496C187.832 170.276 187.861 170.122 187.89 169.985C187.898 169.946 187.905 169.912 187.912 169.882C187.929 169.806 187.941 169.75 187.955 169.665C187.993 169.443 188.101 169.251 188.253 169.107C188.058 169.05 187.871 169.025 187.694 169.026ZM189.739 171.394C189.75 171.188 189.768 170.973 189.792 170.756C189.813 170.995 189.787 171.219 189.739 171.394ZM189.297 172.981L189.3 172.987L189.297 172.981C191.984 173.29 191.777 172.793 191.362 172.566C191.073 174.951 191.636 174.346 191.831 173.756C188.544 176.197 189.589 175.853 190.354 175.388C184.774 175.485 185.782 176.159 187.24 176.179C183.316 172.949 183.555 173.863 184.149 174.654M191.362 172.566C191.488 172.386 191.592 172.184 191.657 171.959L191.658 171.957C191.921 171.041 191.952 169.218 190.391 168.009C189.567 167.371 188.638 167.021 187.683 167.026C186.726 167.031 185.824 167.392 185.065 168.037M185.065 168.037C183.57 169.308 183.186 171.275 183.268 172.34Z" fill="black"/>
<path fill-rule="evenodd" clip-rule="evenodd" d="M70.5084 150.263C71.4044 151.351 71.968 152.812 72.2263 153.809C72.3648 154.343 72.0436 154.889 71.509 155.027C70.9743 155.166 70.4287 154.845 70.2902 154.31C70.258 154.186 70.2204 154.055 70.1777 153.919C70.0292 154.324 69.8116 154.675 69.5122 154.949C69.1065 155.32 68.6291 155.479 68.1799 155.508C67.3448 155.564 66.5659 155.186 66.1249 154.887L66.0813 154.858L66.0411 154.824C65.4507 154.326 64.6331 153.42 64.3769 152.349C64.2403 151.777 64.2577 151.123 64.5987 150.496C64.9327 149.881 65.5124 149.412 66.271 149.066L66.6857 149.976L66.271 149.066C67.1281 148.676 67.9701 148.654 68.7362 148.932C69.4704 149.2 70.0562 149.714 70.5084 150.263ZM66.4157 151.361C66.3892 151.395 66.3699 151.425 66.3559 151.451C66.3226 151.512 66.3011 151.581 66.2974 151.664C66.3304 151.557 66.3708 151.455 66.4157 151.361Z" fill="black"/>
<path fill-rule="evenodd" clip-rule="evenodd" d="M83.5041 68.6078C84.3657 68.8436 85.115 69.3815 85.6141 70.1224C86.1047 69.3758 86.8477 68.8294 87.7066 68.5837C87.1482 67.8865 86.8581 67.0109 86.8899 66.1181C86.0542 66.4338 85.1318 66.4391 84.2926 66.133C84.3345 67.0253 84.0545 67.9042 83.5041 68.6078ZM84.7737 64.1643C83.4986 63.5033 82.0191 64.5912 82.27 66.0053C82.3696 66.5669 82.1866 67.1415 81.7805 67.5419C80.7578 68.5502 81.3353 70.2935 82.7577 70.4919C83.3225 70.5707 83.8124 70.9223 84.0678 71.4323C84.7107 72.7165 86.5471 72.706 87.1754 71.4145C87.4248 70.9017 87.9107 70.5444 88.4746 70.4592C89.8946 70.2445 90.4521 68.4947 89.418 67.4981C89.0073 67.1024 88.8177 66.5299 88.9108 65.9673C89.1455 64.5504 87.6536 63.4795 86.3863 64.1551C85.883 64.4234 85.28 64.4268 84.7737 64.1643Z" fill="black"/>
<path fill-rule="evenodd" clip-rule="evenodd" d="M123.386 123.166C122.834 123.166 122.386 123.614 122.386 124.166V135.427C122.386 135.979 122.834 136.427 123.386 136.427C123.939 136.427 124.386 135.979 124.386 135.427V124.166C124.386 123.614 123.939 123.166 123.386 123.166Z" fill="black"/>
<path fill-rule="evenodd" clip-rule="evenodd" d="M131.864 124.491C131.312 124.491 130.864 124.939 130.864 125.491V136.221C130.864 136.774 131.312 137.221 131.864 137.221C132.417 137.221 132.864 136.774 132.864 136.221V125.491C132.864 124.939 132.417 124.491 131.864 124.491Z" fill="black"/>
<path fill-rule="evenodd" clip-rule="evenodd" d="M113.027 174.129C113.095 174.677 112.706 175.176 112.158 175.245C110.798 175.414 108.524 175.812 106.432 176.48C105.386 176.813 104.417 177.205 103.641 177.65C102.848 178.106 102.352 178.563 102.122 178.982M113.027 174.129C112.958 173.581 112.459 173.192 111.911 173.26ZM111.911 173.26C110.471 173.439 108.069 173.858 105.824 174.574ZM105.824 174.574C104.703 174.932 103.589 175.374 102.645 175.916ZM102.645 175.916C101.718 176.448 100.856 177.132 100.369 178.019ZM100.369 178.019C100.084 178.539 99.7969 179.377 99.7996 180.314ZM99.7996 180.314C99.8024 181.28 100.117 182.38 101.077 183.282ZM101.8 180.308C101.801 180.833 101.96 181.367 102.447 181.824C102.919 182.267 103.658 182.488 104.531 182.521C105.366 182.553 106.179 182.405 106.664 182.262L113.276 179.599C113.788 179.393 114.371 179.641 114.577 180.153C114.783 180.666 114.535 181.248 114.023 181.455L107.329 184.15L107.287 184.163C106.626 184.365 105.567 184.562 104.456 184.52C103.359 184.478 102.053 184.198 101.077 183.282M101.8 180.308C101.798 179.755 101.976 179.247 102.122 178.982Z" fill="black"/>
<path d="M150.185 154.524C144.961 154.692 121.89 165.862 111.007 171.426C110.08 177.556 113.991 181.958 116.062 183.393C126.91 180.244 149.174 173.861 151.449 173.525C153.724 173.189 155.978 171.566 156.82 170.796C162.718 163.909 158.365 158.058 155.451 155.994C153.377 154.524 151.586 154.479 150.185 154.524Z" fill="black"/>
<path d="M101.254 152.962C104.955 153.208 121.101 159.466 128.751 162.746L111.256 171.488C103.426 173.784 98.6158 173.028 97.1469 172.533C88.6676 168.448 91.9898 158.37 95.3587 154.636C97.53 152.788 99.9282 152.873 101.254 152.962Z" fill="black"/>
<path fill-rule="evenodd" clip-rule="evenodd" d="M141.546 175.011C141.785 174.514 142.382 174.304 142.88 174.543C145.384 175.746 146.793 177.353 147.528 178.738L147.546 178.772L147.562 178.807C148.365 180.646 148.122 182.374 146.953 183.48C145.837 184.537 144.123 184.781 142.477 184.262C141.671 184.007 141.116 183.778 140.64 183.498C140.206 183.242 139.865 182.958 139.506 182.661C139.478 182.637 139.45 182.614 139.422 182.59L139.422 182.59C138.973 182.218 137.011 180.393 134.814 178.282C134.416 177.899 134.404 177.266 134.786 176.868C135.169 176.47 135.802 176.457 136.2 176.84C138.417 178.97 140.319 180.736 140.698 181.051M141.546 175.011C141.307 175.509 141.516 176.107 142.014 176.346ZM142.014 176.346C144.113 177.355 145.204 178.643 145.744 179.642ZM145.744 179.642C146.279 180.893 145.983 181.644 145.579 182.027C145.118 182.463 144.219 182.714 143.079 182.354L143.079 182.354C142.346 182.123 141.949 181.947 141.655 181.774C141.364 181.603 141.14 181.417 140.744 181.088C140.729 181.076 140.714 181.064 140.698 181.051" fill="black"/>
<path d="M98.524 131.395L99.352 146.443C99.6437 151.744 104.028 155.894 109.337 155.894H142C147.523 155.894 152 151.416 152 145.894V130.394C152 124.819 147.44 120.32 141.865 120.395L108.374 120.847C102.689 120.923 98.2116 125.718 98.524 131.395Z" fill="black"/>
<path d="M99.541 157.616C99.541 156.921 100.104 156.357 100.8 156.357H150.742C151.437 156.357 152 156.921 152 157.616V157.616C152 158.311 151.437 158.874 150.742 158.874H100.8C100.104 158.874 99.541 158.311 99.541 157.616V157.616Z" fill="black"/>
<path fill-rule="evenodd" clip-rule="evenodd" d="M149.869 121.131C145.999 110.539 136.279 107.221 132.011 107.282C131.459 107.29 131.005 106.849 130.997 106.297C130.989 105.745 131.43 105.291 131.982 105.283C136.943 105.211 147.536 108.915 151.747 120.445C151.937 120.964 151.67 121.538 151.151 121.728C150.632 121.917 150.058 121.65 149.869 121.131Z" fill="black"/>
<path fill-rule="evenodd" clip-rule="evenodd" d="M122.844 106.025C122.95 106.567 122.596 107.092 122.054 107.198C116.894 108.204 113.169 109.793 110.26 112.129C107.35 114.466 105.18 117.613 103.232 121.867C103.002 122.369 102.408 122.59 101.906 122.36C101.404 122.13 101.184 121.536 101.414 121.034C103.439 116.611 105.774 113.167 109.007 110.57C112.242 107.972 116.3 106.282 121.671 105.235C122.213 105.129 122.738 105.483 122.844 106.025Z" fill="black"/>
<path fill-rule="evenodd" clip-rule="evenodd" d="M160.198 111.53C160.672 111.814 160.825 112.428 160.541 112.902L157.958 117.207C157.674 117.681 157.059 117.835 156.586 117.55C156.112 117.266 155.959 116.652 156.243 116.178L158.826 111.873C159.11 111.399 159.724 111.246 160.198 111.53Z" fill="black"/>
<path fill-rule="evenodd" clip-rule="evenodd" d="M163.964 114.332C164.316 114.757 164.258 115.387 163.833 115.74L160.322 118.655C159.897 119.007 159.267 118.949 158.914 118.524C158.561 118.099 158.62 117.469 159.045 117.116L162.555 114.201C162.98 113.849 163.611 113.907 163.964 114.332Z" fill="black"/>
<path fill-rule="evenodd" clip-rule="evenodd" d="M163.749 118.444C164.208 118.75 164.332 119.371 164.026 119.831C163.431 120.724 162.52 121.03 161.758 121.088C161.013 121.145 160.303 120.979 159.852 120.805C159.337 120.605 159.081 120.026 159.281 119.511C159.48 118.996 160.059 118.74 160.574 118.94C160.808 119.03 161.218 119.123 161.606 119.094C161.979 119.065 162.216 118.941 162.362 118.721C162.668 118.262 163.289 118.138 163.749 118.444Z" fill="black"/>
<path fill-rule="evenodd" clip-rule="evenodd" d="M87.7841 111.062C88.1809 110.678 88.814 110.688 89.1981 111.085L93.1723 115.191C93.5563 115.588 93.546 116.221 93.1491 116.605C92.7522 116.99 92.1191 116.979 91.7351 116.582L87.7609 112.476C87.3768 112.079 87.3872 111.446 87.7841 111.062Z" fill="black"/>
<path fill-rule="evenodd" clip-rule="evenodd" d="M93.7486 108.132C94.2637 107.933 94.8428 108.188 95.0422 108.703L97.4267 114.863C97.6261 115.379 97.3702 115.958 96.8551 116.157C96.3401 116.356 95.761 116.1 95.5616 115.585L93.1771 109.425C92.9777 108.91 93.2336 108.331 93.7486 108.132Z" fill="black"/>
<path fill-rule="evenodd" clip-rule="evenodd" d="M87.544 116.726C87.7392 116.209 88.3163 115.948 88.8329 116.144L91.8136 117.27C92.3302 117.465 92.5908 118.042 92.3956 118.558C92.2005 119.075 91.6234 119.336 91.1068 119.141L88.1261 118.015C87.6095 117.819 87.3489 117.242 87.544 116.726Z" fill="black"/>
<path fill-rule="evenodd" clip-rule="evenodd" d="M152.92 127.375C153.385 127.078 154.003 127.215 154.3 127.68C155.52 129.592 156.951 131.867 157.33 134.812C157.714 137.791 157.013 141.31 154.312 145.749C154.025 146.221 153.409 146.371 152.938 146.084C152.466 145.797 152.316 145.182 152.603 144.71C155.135 140.55 155.658 137.484 155.347 135.068C155.031 132.617 153.845 130.686 152.614 128.756C152.317 128.29 152.454 127.672 152.92 127.375Z" fill="black"/>
<path d="M132.063 106.614C132.659 104.892 132.116 103.733 131.586 103.512C128.407 106.426 123.585 105.344 121.796 103.578C121.161 104.161 121.531 105.885 121.796 106.415C125.241 110.23 130.142 108.093 132.063 106.614Z" fill="black"/>
<path fill-rule="evenodd" clip-rule="evenodd" d="M134.436 109.829C134.855 110.188 134.904 110.819 134.544 111.239L132.462 113.669C130.577 115.867 127.5 116.619 124.814 115.536C122.709 114.687 120.298 115.446 119.06 117.347L118.793 117.757C118.491 118.22 117.872 118.351 117.409 118.049C116.946 117.748 116.815 117.128 117.117 116.666L117.384 116.256C119.144 113.553 122.571 112.475 125.562 113.681C127.452 114.443 129.617 113.914 130.943 112.367L133.026 109.937C133.385 109.518 134.017 109.469 134.436 109.829Z" fill="black"/>
<path fill-rule="evenodd" clip-rule="evenodd" d="M97.6136 129.737C98.122 129.953 98.3592 130.54 98.1433 131.048C97.6933 132.109 97.1819 133.982 97.168 136.046C97.1541 138.105 97.6338 140.264 99.0584 142.015C99.4069 142.444 99.3421 143.074 98.9136 143.422C98.4852 143.771 97.8553 143.706 97.5068 143.277C95.6992 141.055 95.1522 138.39 95.1681 136.033C95.1839 133.681 95.7589 131.547 96.3024 130.267C96.5182 129.758 97.1053 129.521 97.6136 129.737Z" fill="black"/>
<path d="M141.196 79.537C139.739 84.7697 139.01 85.2333 136.891 87.5516C136.891 85.2605 136.497 81.4149 136.497 79.8136C129.557 79.8136 123.7 76.9805 121.639 75.5639C121.713 80.3679 117.209 83.5089 117.209 83.5089C117.209 83.5089 117.855 85.449 118.224 89.791C118.52 93.2646 117.67 92.5933 117.209 91.8234C115.88 87.5368 113.702 88.6824 112.779 89.791C101.454 71.3899 118.87 67.8345 122.192 68.1732C124.703 66.0299 128.203 64.3503 130.664 64.1039C139.54 63.2154 143.559 71.0524 141.196 79.537Z" fill="black"/>
<path fill-rule="evenodd" clip-rule="evenodd" d="M136.214 78.9968C136.763 78.9297 137.261 79.3196 137.329 79.8678C137.638 82.391 138.094 86.4389 137.728 90.6169C137.364 94.7797 136.171 99.2261 133.048 102.415C129.833 105.698 125.906 105.904 122.672 104.236C119.504 102.602 117.022 99.1943 116.378 95.2602C116.288 94.7152 116.658 94.201 117.203 94.1117C117.748 94.0225 118.262 94.3919 118.351 94.9369C118.899 98.2816 121.014 101.13 123.589 102.459C126.098 103.753 129.06 103.628 131.619 101.015C134.271 98.3076 135.388 94.4093 135.736 90.4425C136.082 86.4909 135.651 82.6242 135.343 80.111C135.276 79.5628 135.666 79.064 136.214 78.9968Z" fill="black"/>
<path fill-rule="evenodd" clip-rule="evenodd" d="M113.026 88.414C113.537 88.6223 113.783 89.2059 113.574 89.7173C113.323 90.3342 113.296 91.4544 113.822 92.4005C114.301 93.2624 115.305 94.0913 117.364 94.0913C117.917 94.0913 118.364 94.539 118.364 95.0913C118.364 95.6436 117.917 96.0913 117.364 96.0913C114.663 96.0913 112.944 94.9388 112.074 93.3722C111.25 91.8897 111.245 90.1343 111.722 88.9627C111.931 88.4513 112.514 88.2056 113.026 88.414Z" fill="black"/>
<path fill-rule="evenodd" clip-rule="evenodd" d="M115.014 89.3581C115.546 89.5047 115.859 90.0552 115.712 90.5877C115.714 90.5825 115.714 90.58 115.715 90.58C115.716 90.5803 115.706 90.6574 115.757 90.7706C115.806 90.8791 115.94 91.0838 116.339 91.275C116.837 91.5136 117.048 92.1108 116.809 92.6089C116.57 93.107 115.973 93.3174 115.475 93.0788C113.851 92.301 113.552 90.8983 113.784 90.0568C113.931 89.5244 114.481 89.2116 115.014 89.3581Z" fill="black"/>
<path fill-rule="evenodd" clip-rule="evenodd" d="M138.294 86.2814C138.843 86.2212 139.337 86.6174 139.398 87.1664C139.62 89.1944 139.451 90.9144 138.972 92.2543C138.495 93.5877 137.676 94.622 136.56 95.087C136.051 95.2995 135.465 95.0586 135.253 94.5488C135.04 94.039 135.281 93.4535 135.791 93.241C136.229 93.0582 136.735 92.569 137.089 91.5805C137.44 90.5985 137.608 89.1982 137.41 87.3845C137.349 86.8355 137.745 86.3416 138.294 86.2814Z" fill="black"/>
<path fill-rule="evenodd" clip-rule="evenodd" d="M130.785 96.241C131.138 96.666 131.079 97.2964 130.654 97.6492C130.445 97.8232 130.285 98.0078 130.132 98.2077C130.1 98.2497 130.061 98.3024 130.018 98.3611C129.897 98.524 129.743 98.7331 129.603 98.8874C129.373 99.1415 129.052 99.4137 128.582 99.5435C128.129 99.6686 127.658 99.6279 127.18 99.5033C126.646 99.3638 126.325 98.8176 126.465 98.2832C126.604 97.7488 127.15 97.4286 127.685 97.568C127.824 97.6044 127.918 97.6163 127.976 97.6189C128.005 97.6201 128.024 97.619 128.035 97.6179C128.04 97.6173 128.044 97.6168 128.046 97.6163C128.055 97.6106 128.078 97.5925 128.12 97.5458C128.193 97.4656 128.247 97.3913 128.329 97.2792C128.384 97.2042 128.452 97.1124 128.545 96.9907C128.746 96.7281 129.008 96.4161 129.377 96.1103C129.802 95.7575 130.432 95.8161 130.785 96.241Z" fill="black"/>
<path d="M132.974 89.2824C132.974 89.8311 132.529 90.2759 131.98 90.2759C131.431 90.2759 130.987 89.8311 130.987 89.2824C130.987 88.7336 131.431 88.2888 131.98 88.2888C132.529 88.2888 132.974 88.7336 132.974 89.2824Z" fill="black"/>
<path d="M124.23 89.4148C124.23 89.9635 123.786 90.4084 123.237 90.4084C122.688 90.4084 122.243 89.9635 122.243 89.4148C122.243 88.8661 122.688 88.4213 123.237 88.4213C123.786 88.4213 124.23 88.8661 124.23 89.4148Z" fill="black"/>
<path fill-rule="evenodd" clip-rule="evenodd" d="M123.933 86.7401C122.557 86.4776 122.093 87.2505 122.02 87.4646C121.843 87.9875 121.275 88.2674 120.752 88.0898C120.229 87.9122 119.949 87.3442 120.127 86.8213C120.472 85.8042 121.812 84.2994 124.308 84.7756C124.85 84.8791 125.206 85.4028 125.103 85.9453C124.999 86.4878 124.475 86.8437 123.933 86.7401Z" fill="black"/>
<path fill-rule="evenodd" clip-rule="evenodd" d="M132.808 86.7615C131.966 86.1533 131.228 86.5107 131.001 86.7066C130.584 87.0682 129.952 87.0229 129.591 86.6054C129.229 86.188 129.275 85.5564 129.692 85.1948C130.389 84.591 132.162 83.8287 133.979 85.1399C134.427 85.4631 134.528 86.0882 134.204 86.536C133.881 86.9838 133.256 87.0848 132.808 86.7615Z" fill="black"/>
<path fill-rule="evenodd" clip-rule="evenodd" d="M127.259 87.7395C126.71 87.6748 126.213 88.067 126.149 88.6155C126.067 89.3045 125.996 90.3606 126.058 91.2882C126.089 91.7437 126.155 92.236 126.302 92.653C126.426 93.0035 126.746 93.6847 127.521 93.8236C128.064 93.921 128.584 93.5593 128.681 93.0157C128.759 92.5824 128.545 92.1644 128.18 91.9632C128.126 91.798 128.079 91.5263 128.054 91.1552C128.003 90.393 128.062 89.4688 128.135 88.8498C128.199 88.3013 127.807 87.8042 127.259 87.7395ZM128.225 92.0725C128.225 92.0716 128.222 92.0636 128.213 92.051C128.221 92.067 128.225 92.0733 128.225 92.0725Z" fill="black"/>
<path fill-rule="evenodd" clip-rule="evenodd" d="M177.377 127.89C177.595 127.382 178.183 127.148 178.691 127.365C189.61 132.055 196.425 137.383 201.055 141.945L201.083 141.974L201.11 142.004C202.948 144.133 204.124 145.987 204.66 147.6C205.206 149.244 205.108 150.727 204.263 151.927C203.455 153.074 202.091 153.774 200.525 154.199C198.941 154.63 197.009 154.818 194.878 154.835C186.38 154.902 173.904 152.236 165.047 149.781C164.514 149.634 164.203 149.083 164.35 148.55C164.498 148.018 165.049 147.706 165.581 147.854C174.409 150.301 186.659 152.9 194.862 152.835C196.906 152.819 198.648 152.637 200.001 152.269C201.372 151.897 202.208 151.371 202.628 150.775C203.01 150.233 203.168 149.455 202.762 148.231C202.347 146.983 201.37 145.371 199.622 143.341C195.156 138.946 188.552 133.777 177.901 129.203C177.394 128.985 177.159 128.397 177.377 127.89Z" fill="black"/>
<path fill-rule="evenodd" clip-rule="evenodd" d="M157.111 98.2838C162.919 94.7582 178.766 88.2455 196.155 90.1298C200.462 90.5965 203.171 91.9065 203.952 94.2653C204.335 95.42 204.181 96.6523 203.738 97.8484C203.295 99.0445 202.535 100.281 201.585 101.513C197.811 106.407 190.509 111.882 184.995 115.414C184.53 115.712 183.912 115.576 183.614 115.111C183.316 114.646 183.452 114.028 183.917 113.73C189.398 110.218 196.45 104.897 200.001 100.291C200.883 99.1482 201.515 98.0912 201.863 97.1535C202.21 96.2157 202.246 95.4742 202.054 94.8941C201.686 93.7831 200.19 92.5788 195.94 92.1182C179.098 90.2932 163.69 96.6304 158.149 99.9934C157.677 100.28 157.062 100.13 156.775 99.6575C156.489 99.1854 156.639 98.5703 157.111 98.2838Z" fill="black"/>
<path fill-rule="evenodd" clip-rule="evenodd" d="M126.081 58.9217C134.286 50.4982 142.686 47.4891 150.194 50.5635C153.502 51.9186 154.931 55.3018 155.288 59.3649C155.647 63.4572 154.962 68.5626 153.72 73.9317C151.231 84.6892 146.432 96.8165 142.773 104.7C142.541 105.201 141.946 105.419 141.445 105.186C140.944 104.954 140.727 104.359 140.959 103.858C144.586 96.0441 149.325 84.0548 151.771 73.4809C152.996 68.1843 153.627 63.3202 153.296 59.5399C152.961 55.7304 151.69 53.3378 149.436 52.4143C143.033 49.7925 135.47 52.1485 127.514 60.3172C119.569 68.4735 111.449 82.2392 104.12 101.782C103.927 102.299 103.35 102.561 102.833 102.368C102.316 102.174 102.054 101.597 102.248 101.08C109.624 81.4112 117.864 67.3576 126.081 58.9217Z" fill="black"/>
<path fill-rule="evenodd" clip-rule="evenodd" d="M55.9792 77.1777C66.7953 79.6919 79.2753 85.3988 87.4601 89.8794C87.9445 90.1446 88.1223 90.7523 87.8571 91.2367C87.5919 91.7212 86.9842 91.8989 86.4997 91.6337C78.3903 87.1945 66.0913 81.5816 55.5264 79.1258C50.2274 77.8941 45.4901 77.4877 41.965 78.3253C40.2186 78.7403 38.8137 79.4503 37.7751 80.4756C36.7438 81.4936 36.0142 82.8804 35.7062 84.7584C35.0927 88.4999 36.4845 92.1682 39.3565 95.7179C42.2331 99.2733 46.5252 102.617 51.4886 105.637C61.4097 111.673 73.7847 116.283 82.1544 118.674C82.6855 118.826 82.9929 119.379 82.8412 119.91C82.6895 120.441 82.136 120.749 81.605 120.597C73.1286 118.175 60.5722 113.505 50.449 107.345C45.3903 104.267 40.8821 100.783 37.8017 96.9759C34.7167 93.1629 32.9949 88.9331 33.7326 84.4348C34.1002 82.1928 35.0013 80.4034 36.37 79.0523C37.7314 77.7084 39.496 76.8563 41.5026 76.3795C45.4838 75.4334 50.5875 75.9245 55.9792 77.1777Z" fill="black"/>
<path fill-rule="evenodd" clip-rule="evenodd" d="M87.0961 127.83C87.3469 128.322 87.1513 128.924 86.6593 129.175C74.7568 135.243 61.4582 142.419 53.1953 149.14C49.0281 152.53 46.3357 155.654 45.5835 158.318C45.2222 159.598 45.3162 160.742 45.8925 161.8C46.4844 162.886 47.642 163.985 49.6031 165.023C51.1222 165.827 53.3176 166.344 55.9578 166.586C58.5804 166.827 61.563 166.79 64.6024 166.541C70.6969 166.041 76.8984 164.699 80.7493 163.126C81.2606 162.917 81.8443 163.163 82.0531 163.674C82.2619 164.185 82.0167 164.769 81.5054 164.978C77.4079 166.651 70.9913 168.024 64.7659 168.534C61.6452 168.79 58.5424 168.832 55.775 168.578C53.0253 168.326 50.5262 167.774 48.6673 166.79C46.5026 165.644 44.9811 164.307 44.1363 162.757C43.2761 161.178 43.1759 159.485 43.6587 157.775C44.5944 154.46 47.7424 150.997 51.9333 147.589C60.3865 140.713 73.8746 133.447 85.751 127.393C86.243 127.143 86.8452 127.338 87.0961 127.83Z" fill="black"/>
<path d="M157.895 207.635C157.895 209.83 143.216 211.61 125.108 211.61C107 211.61 92.321 209.83 92.321 207.635C92.321 205.441 107 203.661 125.108 203.661C143.216 203.661 157.895 205.441 157.895 207.635Z" fill="black"/>
</svg>
