<svg width="26" height="26" viewBox="0 0 26 26" fill="none" xmlns="http://www.w3.org/2000/svg">
<path d="M14.8333 12.3418L16.8885 10.2885C17.234 9.95429 17.697 9.76917 18.1777 9.773C18.6584 9.77683 19.1184 9.96932 19.4585 10.309C19.7987 10.6487 19.9918 11.1084 19.9963 11.5891C20.0009 12.0698 19.8164 12.533 19.4827 12.879L14.2962 18.0655C14.1263 18.2363 13.9243 18.3719 13.7019 18.4644C13.4795 18.5569 13.2409 18.6046 13 18.6046C12.7591 18.6046 12.5205 18.5569 12.2981 18.4644C12.0757 18.3719 11.8737 18.2363 11.7038 18.0655L6.51733 12.879C6.34712 12.7085 6.21214 12.5062 6.12012 12.2836C6.02809 12.061 5.98081 11.8224 5.98098 11.5815C5.98115 11.3406 6.02877 11.1021 6.12111 10.8797C6.21345 10.6572 6.34871 10.455 6.51917 10.2848C6.68962 10.1146 6.89194 9.97964 7.11456 9.88762C7.33717 9.79559 7.57574 9.74831 7.81663 9.74848C8.05752 9.74865 8.29602 9.79627 8.51851 9.88861C8.741 9.98095 8.94312 10.1162 9.11333 10.2867L11.1667 12.3418V2C11.1667 1.51377 11.3598 1.04745 11.7036 0.703638C12.0475 0.359821 12.5138 0.166667 13 0.166667C13.4862 0.166667 13.9525 0.359821 14.2964 0.703638C14.6402 1.04745 14.8333 1.51377 14.8333 2V12.3418ZM2 22.1667H24C24.4862 22.1667 24.9525 22.3598 25.2964 22.7036C25.6402 23.0475 25.8333 23.5138 25.8333 24C25.8333 24.4862 25.6402 24.9525 25.2964 25.2964C24.9525 25.6402 24.4862 25.8333 24 25.8333H2C1.51377 25.8333 1.04746 25.6402 0.703639 25.2964C0.359822 24.9525 0.166668 24.4862 0.166668 24C0.166668 23.5138 0.359822 23.0475 0.703639 22.7036C1.04746 22.3598 1.51377 22.1667 2 22.1667Z" fill="white"/>
</svg>
