<svg width="44" height="44" viewBox="0 0 44 44" fill="none" xmlns="http://www.w3.org/2000/svg">
<path d="M28.9923 39.9751V32.7851C29.2424 30.5333 28.5967 28.2736 27.1948 26.4938C32.5873 26.4938 37.9798 22.8988 37.9798 16.6075C38.1236 14.3606 37.4945 12.1497 36.1823 10.3162C36.6856 8.24905 36.6856 6.09204 36.1823 4.0249C36.1823 4.0249 34.3848 4.0249 30.7898 6.72117C26.0444 5.82241 21.1551 5.82241 16.4097 6.72117C12.8147 4.0249 11.0172 4.0249 11.0172 4.0249C10.4779 6.09204 10.4779 8.24905 11.0172 10.3162C9.70795 12.1421 9.07266 14.3656 9.21966 16.6075C9.21966 22.8988 14.6122 26.4938 20.0047 26.4938C19.3037 27.3746 18.7824 28.3812 18.4768 29.4597C18.1713 30.5382 18.0814 31.6706 18.2072 32.7851V39.9751" stroke="black" stroke-width="3" stroke-linecap="round" stroke-linejoin="round"/>
<path d="M18.2072 32.7851C10.1004 36.3801 9.21966 29.1901 5.62463 29.1901" stroke="black" stroke-width="3" stroke-linecap="round" stroke-linejoin="round"/>
</svg>
