<svg width="44" height="44" viewBox="0 0 44 44" fill="none" xmlns="http://www.w3.org/2000/svg">
<path fill-rule="evenodd" clip-rule="evenodd" d="M13.7427 5.5H30.2592C34.8095 5.5 38.5 9.18867 38.5 13.7427V30.2592C38.5 34.8095 34.8113 38.5 30.2573 38.5H13.7427C9.1905 38.5 5.5 34.8113 5.5 30.2573V13.7427C5.5 9.1905 9.18867 5.5 13.7427 5.5V5.5Z" stroke="black" stroke-width="3" stroke-linecap="round" stroke-linejoin="round"/>
<path d="M31.0732 12.3072C30.7322 12.309 30.4553 12.5858 30.4553 12.9268C30.4553 13.2678 30.734 13.5447 31.075 13.5447C31.416 13.5447 31.6928 13.2678 31.6928 12.9268C31.6947 12.584 31.416 12.3072 31.0732 12.3072" stroke="black" stroke-width="3" stroke-linecap="round" stroke-linejoin="round"/>
<path d="M26.6669 17.3331C29.2444 19.9106 29.2444 24.0894 26.6669 26.6669C24.0895 29.2444 19.9106 29.2444 17.3331 26.6669C14.7557 24.0894 14.7557 19.9106 17.3331 17.3331C19.9106 14.7556 24.0895 14.7556 26.6669 17.3331" stroke="black" stroke-width="3" stroke-linecap="round" stroke-linejoin="round"/>
</svg>
