<svg width="250" height="250" viewBox="0 0 250 250" fill="none" xmlns="http://www.w3.org/2000/svg">
<rect width="250" height="250" rx="125" fill="#F4F4F4"/>
<path fill-rule="evenodd" clip-rule="evenodd" d="M85.7575 108.031C84.3991 108.462 82.8885 109.423 81.2885 111.221L81.2885 111.221C78.1302 114.77 77.5468 118.311 77.9424 121.7C78.1431 123.419 78.5978 125.107 79.1217 126.755C79.3318 127.416 79.5617 128.094 79.7894 128.767C80.1074 129.705 80.4212 130.632 80.6712 131.481C82.4572 136.783 86.9098 142.936 92.9299 148.85C98.9392 154.754 106.432 160.342 114.176 164.525C114.661 164.787 114.843 165.394 114.58 165.88C114.318 166.366 113.711 166.547 113.225 166.284C105.314 162.011 97.6694 156.31 91.5283 150.277C85.4046 144.261 80.6963 137.838 78.7693 132.1L78.7633 132.082L78.7579 132.063C78.5108 131.222 78.2246 130.38 77.9209 129.485C77.6927 128.813 77.4546 128.112 77.2157 127.36C76.6767 125.665 76.1783 123.837 75.9559 121.932C75.5055 118.073 76.1961 113.935 79.7944 109.891L80.5415 110.556L79.7944 109.891C81.5726 107.893 83.3734 106.689 85.1525 106.125C86.9404 105.557 88.6377 105.657 90.1579 106.154C93.1469 107.132 95.431 109.629 96.6329 111.581C99.9541 116.868 109.23 128.659 118.045 134.871C118.496 135.189 118.604 135.813 118.286 136.265C117.968 136.716 117.344 136.824 116.893 136.506C107.779 130.083 98.333 118.049 94.9368 112.641L94.9318 112.633L94.9319 112.633C93.8688 110.905 91.9112 108.832 89.5364 108.055C88.3736 107.675 87.1072 107.603 85.7575 108.031Z" fill="black"/>
<path fill-rule="evenodd" clip-rule="evenodd" d="M179.58 167.821C180.08 168.056 180.296 168.651 180.061 169.151C178.527 172.426 176.351 181.174 180.069 189.516C180.294 190.02 180.067 190.612 179.563 190.836C179.058 191.061 178.467 190.835 178.242 190.33C174.215 181.296 176.557 171.919 178.25 168.303C178.484 167.803 179.08 167.587 179.58 167.821Z" fill="black"/>
<path fill-rule="evenodd" clip-rule="evenodd" d="M205.266 170.562C205.775 165.735 203.55 162.454 202.646 161.299L202.604 161.246L202.57 161.187C200.362 157.402 195.389 151.749 189.968 146.171C184.582 140.63 178.84 135.251 175.146 132.013C174.591 131.586 174.016 131.114 173.419 130.623C169.222 127.176 163.871 122.781 156.082 126.095C155.574 126.312 154.986 126.075 154.77 125.567C154.554 125.059 154.791 124.471 155.299 124.255C164.293 120.428 170.669 125.725 174.802 129.158C175.374 129.633 175.903 130.073 176.39 130.448L176.416 130.467L176.44 130.488C180.174 133.759 185.968 139.186 191.402 144.777C196.785 150.315 201.901 156.1 204.263 160.121C205.336 161.506 207.835 165.275 207.255 170.772C206.665 176.354 202.932 183.439 191.986 191.422C191.539 191.747 190.914 191.65 190.588 191.203C190.263 190.757 190.361 190.132 190.807 189.806C201.496 182.011 204.757 175.377 205.266 170.562Z" fill="black"/>
<path fill-rule="evenodd" clip-rule="evenodd" d="M195.86 192.447C196.233 192.04 196.866 192.012 197.273 192.385C198.127 193.168 199.044 194.184 199.791 195.316C200.532 196.438 201.145 197.736 201.31 199.071C201.48 200.444 201.17 201.846 200.089 203.048C199.039 204.214 197.346 205.096 194.933 205.667C194.396 205.795 193.857 205.462 193.73 204.925C193.603 204.387 193.935 203.848 194.472 203.721C196.676 203.2 197.93 202.457 198.603 201.709C199.244 200.997 199.434 200.195 199.326 199.317C199.212 198.4 198.769 197.399 198.122 196.417C197.479 195.444 196.676 194.551 195.922 193.86C195.515 193.487 195.487 192.854 195.86 192.447Z" fill="black"/>
<path fill-rule="evenodd" clip-rule="evenodd" d="M185.901 189.564C185.934 189.013 186.408 188.593 186.959 188.626C187.962 188.686 188.892 188.874 189.751 189.165L189.751 189.165C192.369 190.052 194.253 191.866 195.538 193.761C196.82 195.652 197.547 197.678 197.836 199.114C197.945 199.656 197.595 200.183 197.054 200.292C196.512 200.402 195.985 200.051 195.876 199.51C195.634 198.311 195.003 196.536 193.883 194.884C192.766 193.237 191.202 191.768 189.11 191.06C188.42 190.826 187.665 190.672 186.839 190.622C186.288 190.589 185.868 190.116 185.901 189.564Z" fill="black"/>
<path fill-rule="evenodd" clip-rule="evenodd" d="M188.344 169.98C188.641 170.445 188.505 171.063 188.039 171.36C185.249 173.141 182.299 177.479 181.139 182.643C179.988 187.76 180.637 193.5 184.764 198.149C189.134 203.071 192.123 205.687 194.052 206.971C195.023 207.617 195.667 207.885 196.043 207.97C196.122 207.988 196.179 207.996 196.219 207.999C196.571 207.709 197.09 207.689 197.466 207.979C197.904 208.317 197.985 208.945 197.648 209.382C197.128 210.056 196.272 210.071 195.604 209.921C194.887 209.76 194.008 209.344 192.944 208.636C190.805 207.213 187.684 204.449 183.269 199.477C178.612 194.232 177.933 187.783 179.187 182.205C180.431 176.673 183.615 171.811 186.963 169.675C187.429 169.377 188.047 169.514 188.344 169.98ZM196.296 207.999C196.297 208 196.29 208.001 196.276 208.002C196.288 207.999 196.295 207.998 196.296 207.999Z" fill="black"/>
<path fill-rule="evenodd" clip-rule="evenodd" d="M163.014 150.261C163.5 149.999 164.106 150.182 164.368 150.669C165.629 153.018 168.208 156.624 171.795 159.695C175.382 162.765 179.902 165.238 185.062 165.482C185.614 165.508 186.04 165.977 186.014 166.528C185.988 167.08 185.52 167.506 184.968 167.48C179.216 167.207 174.287 164.46 170.495 161.214C166.703 157.969 163.974 154.163 162.605 151.615C162.344 151.128 162.527 150.522 163.014 150.261Z" fill="black"/>
<path fill-rule="evenodd" clip-rule="evenodd" d="M74.1694 92.2868C75.0608 93.1714 75.5921 94.4303 75.8536 95.223C76.0267 95.7475 75.7418 96.3129 75.2173 96.486C74.6929 96.659 74.1274 96.3741 73.9544 95.8497C73.7246 95.1533 73.3144 94.256 72.7606 93.7064C72.4963 93.4442 72.2445 93.306 72.0061 93.2617C71.7822 93.22 71.461 93.24 71.0024 93.4959C70.5202 93.7651 69.911 93.5923 69.6419 93.1101C69.3727 92.6278 69.5455 92.0187 70.0277 91.7495C70.8222 91.3061 71.6146 91.1545 72.3718 91.2954C73.1145 91.4336 73.7111 91.832 74.1694 92.2868Z" fill="black"/>
<path fill-rule="evenodd" clip-rule="evenodd" d="M78.4641 96.1441C78.4637 96.189 78.4633 96.2303 78.4633 96.2675C78.4633 96.8198 78.0156 97.2675 77.4633 97.2675C76.911 97.2675 76.4633 96.8198 76.4633 96.2675V96.2569C76.4633 95.6019 76.4633 95.0808 76.2106 94.6832C76.0331 94.4038 75.5417 93.924 73.8395 93.9803C73.2875 93.9986 72.8252 93.5659 72.807 93.0139C72.7887 92.4619 73.2213 91.9997 73.7733 91.9814C75.8572 91.9124 77.1942 92.5021 77.8986 93.6105C78.4786 94.523 78.4689 95.6006 78.4641 96.1441Z" fill="black"/>
<path fill-rule="evenodd" clip-rule="evenodd" d="M79.3726 94.0249C80.1751 94.6276 80.9216 95.5554 81.1019 96.7372L80.1143 96.8879L81.1019 96.7372C81.4301 98.8876 82.9431 100.987 84.407 102.528C84.7873 102.929 84.7709 103.562 84.3704 103.942C83.9699 104.322 83.337 104.306 82.9567 103.905C81.4157 102.283 79.5479 99.8109 79.1248 97.0389L79.1248 97.0389C79.0467 96.5269 78.6975 96.0191 78.1716 95.6242C77.6304 95.2178 77.0746 95.0598 76.7819 95.0742C76.2303 95.1014 75.7611 94.6763 75.7339 94.1247C75.7067 93.573 76.1318 93.1038 76.6834 93.0766C77.5801 93.0324 78.5855 93.4338 79.3726 94.0249Z" fill="black"/>
<path fill-rule="evenodd" clip-rule="evenodd" d="M63.2434 88.2795C63.3815 88.5603 63.6728 88.9548 64.1225 89.4607C64.5041 89.89 64.9411 90.3366 65.3942 90.7997C65.5113 90.9194 65.6295 91.0402 65.7481 91.1621C66.3066 91.7361 66.8812 92.3416 67.3001 92.9001C68.2846 94.2127 68.38 96.0371 68.1775 97.454C68.0728 98.1869 67.8789 98.8869 67.6255 99.4595C67.4988 99.7456 67.3484 100.02 67.172 100.257C67.0033 100.483 66.7664 100.735 66.4473 100.894C65.7433 101.246 65.0377 100.981 64.6003 100.758C64.125 100.515 63.6039 100.132 63.0801 99.7319C62.9199 99.6093 62.7549 99.4816 62.5847 99.3499C61.5969 98.5854 60.4342 97.6856 59.0039 96.8683C58.6591 96.6712 58.413 96.6089 58.2628 96.598C58.1227 96.5878 58.0703 96.6209 58.0569 96.63C58.0348 96.6452 57.8635 96.8048 57.9292 97.3082C58.052 98.2498 59.0474 99.8561 61.7426 100.53C64.4205 101.199 66.9987 103.242 69.0788 105.377C71.1834 107.538 72.903 109.924 73.8533 111.479C74.1413 111.95 73.9928 112.565 73.5215 112.853C73.0503 113.141 72.4348 112.993 72.1468 112.521C71.2638 111.077 69.6334 108.813 67.6463 106.773C65.6347 104.708 63.3797 103.001 61.2575 102.47C57.9528 101.644 56.1981 99.5002 55.946 97.5669C55.8241 96.6327 56.0591 95.5736 56.9276 94.9794C57.822 94.3674 58.9562 94.5375 59.9962 95.1318C61.5582 96.0243 62.8397 97.0172 63.8253 97.7808C63.9902 97.9085 64.1468 98.0298 64.295 98.1432C64.8338 98.5552 65.2189 98.8284 65.5093 98.9765C65.5433 98.9938 65.5729 99.0079 65.5985 99.0193C65.6566 98.9337 65.7251 98.8116 65.7966 98.65C65.965 98.2695 66.1149 97.7507 66.1977 97.1711C66.3702 95.963 66.2156 94.7874 65.7001 94.1001C65.369 93.6585 64.8811 93.139 64.3146 92.5568C64.2061 92.4453 64.0948 92.3316 63.982 92.2163C63.5255 91.7498 63.0445 91.2583 62.6277 90.7894C62.124 90.2227 61.6149 89.5829 61.3573 88.9605C61.2255 88.6419 61.1187 88.2329 61.1943 87.7934C61.2772 87.3111 61.5561 86.9275 61.9454 86.668C62.65 86.1983 63.5396 86.2218 64.2465 86.3424C65.0006 86.4712 65.8051 86.7561 66.5389 87.0897C67.2777 87.4255 67.9874 87.83 68.5563 88.2265C68.8404 88.4246 69.1028 88.6299 69.3208 88.8332C69.5223 89.0211 69.7516 89.2669 69.8945 89.5528C70.0247 89.8133 70.2928 90.4159 70.62 91.1513C70.9347 91.8588 71.3041 92.6891 71.6581 93.456C72.0315 94.265 72.3956 95.0224 72.6923 95.5714C72.8405 95.8456 72.9574 96.0405 73.0397 96.158C73.3166 96.3358 73.5001 96.6465 73.5001 97C73.5001 97.5523 73.0524 98 72.5001 98C72.2408 98 72.0454 97.9063 71.9416 97.8454C71.831 97.7805 71.7466 97.707 71.6903 97.6528C71.5781 97.5448 71.4833 97.4212 71.4097 97.317C71.2578 97.1018 71.0948 96.822 70.9329 96.5224C70.6047 95.9152 70.2188 95.1101 69.8422 94.2941C69.4456 93.4348 69.0657 92.5793 68.7561 91.8821C68.4583 91.2113 68.2256 90.6871 68.1057 90.4473C68.1093 90.4545 68.1114 90.4582 68.1111 90.4584C68.1101 90.459 68.0734 90.4046 67.9567 90.2958C67.8271 90.1749 67.6442 90.0287 67.4127 89.8673C66.9503 89.5451 66.3475 89.1996 65.7113 88.9104C65.0701 88.619 64.4371 88.4039 63.9099 88.3139C63.5927 88.2598 63.3789 88.2617 63.2434 88.2795Z" fill="black"/>
<path d="M114.807 72.0145C117.811 82.8211 119.318 83.7785 123.689 88.5661C123.689 83.8348 124.503 75.8929 124.503 72.5856C138.825 72.5856 150.909 66.735 155.167 63.8093C155.011 73.7303 164.308 80.2173 164.308 80.2173C164.308 80.2173 162.975 84.2239 162.212 93.1908C161.6 100.365 163.356 98.9785 164.308 97.3884C167.049 88.5356 171.541 90.9014 173.449 93.1908C196.817 55.1894 160.879 47.8467 154.022 48.5462C148.842 44.1199 141.618 40.6512 136.541 40.1424C118.221 38.3075 109.932 54.4924 114.807 72.0145Z" fill="black"/>
<path fill-rule="evenodd" clip-rule="evenodd" d="M124.62 72.1079C125.168 72.1758 125.557 72.6752 125.489 73.2233C124.843 78.4393 123.926 86.5522 124.662 94.865C125.4 103.192 127.783 111.567 133.602 117.439L132.903 118.132L133.602 117.439C139.331 123.22 146.078 123.525 151.744 120.637C157.472 117.716 162.106 111.509 163.307 104.262C163.398 103.717 163.913 103.349 164.458 103.439C165.002 103.53 165.371 104.045 165.281 104.589C163.98 112.434 158.971 119.197 152.652 122.419C146.27 125.672 138.568 125.291 132.182 118.847L132.892 118.143L132.182 118.847C125.886 112.495 123.425 103.569 122.67 95.0414C121.914 86.4995 122.857 78.2032 123.504 72.9774C123.572 72.4293 124.072 72.04 124.62 72.1079Z" fill="black"/>
<path fill-rule="evenodd" clip-rule="evenodd" d="M172.905 90.7276C173.425 90.5411 173.998 90.8112 174.184 91.331C174.964 93.504 174.975 96.8797 173.572 99.7419C172.126 102.694 169.197 105.048 164.294 105.048C163.741 105.048 163.294 104.6 163.294 104.048C163.294 103.496 163.741 103.048 164.294 103.048C168.425 103.048 170.662 101.137 171.776 98.8618C172.935 96.4969 172.904 93.6831 172.302 92.0067C172.115 91.4869 172.385 90.9142 172.905 90.7276Z" fill="black"/>
<path fill-rule="evenodd" clip-rule="evenodd" d="M168.694 93.697C169.208 93.4969 169.788 93.7519 169.988 94.2667C170.24 94.9138 170.203 95.8093 169.654 96.6646C169.107 97.5176 168.097 98.2686 166.496 98.8063C165.972 98.9821 165.405 98.7002 165.23 98.1767C165.054 97.6531 165.336 97.0862 165.859 96.9104C167.188 96.4641 167.747 95.9335 167.971 95.5844C168.194 95.2376 168.131 95.0105 168.124 94.9914C167.924 94.4767 168.179 93.8971 168.694 93.697Z" fill="black"/>
<path fill-rule="evenodd" clip-rule="evenodd" d="M120.191 87.1765C120.74 87.2373 121.136 87.7316 121.075 88.2805C120.646 92.1494 120.998 95.2185 121.801 97.442C122.606 99.6713 123.832 100.978 125.117 101.509C125.627 101.72 125.87 102.305 125.659 102.815C125.448 103.326 124.863 103.568 124.353 103.357C122.393 102.547 120.851 100.7 119.92 98.1213C118.987 95.5374 118.635 92.1457 119.087 88.0602C119.148 87.5113 119.642 87.1156 120.191 87.1765Z" fill="black"/>
<path fill-rule="evenodd" clip-rule="evenodd" d="M136.958 106.826C137.356 106.443 137.989 106.455 138.372 106.853C139.015 107.52 139.475 108.203 139.844 108.804C139.985 109.033 140.104 109.236 140.211 109.419C140.407 109.751 140.565 110.02 140.745 110.269C141 110.621 141.18 110.752 141.341 110.808C141.503 110.864 141.817 110.902 142.455 110.694C142.98 110.523 143.545 110.81 143.716 111.335C143.887 111.86 143.6 112.424 143.075 112.595C142.205 112.879 141.412 112.948 140.689 112.698C139.966 112.449 139.485 111.939 139.125 111.441C138.89 111.116 138.651 110.712 138.425 110.328C138.327 110.162 138.231 110 138.139 109.849C137.806 109.306 137.432 108.76 136.932 108.24C136.549 107.842 136.561 107.209 136.958 106.826Z" fill="black"/>
<path d="M133.481 93.8217C132.218 93.8217 131.193 92.918 131.193 91.8033C131.193 90.6887 132.218 89.785 133.481 89.785C134.744 89.785 135.768 90.6887 135.768 91.8033C135.768 92.918 134.744 93.8217 133.481 93.8217Z" fill="black"/>
<path d="M151.377 93.8216C150.188 93.8216 149.224 93.0987 149.224 92.2069C149.224 91.3152 150.188 90.5923 151.377 90.5923C152.566 90.5923 153.53 91.3152 153.53 92.2069C153.53 93.0987 152.566 93.8216 151.377 93.8216Z" fill="black"/>
<path fill-rule="evenodd" clip-rule="evenodd" d="M149.072 84.0859C153.908 83.3433 156.462 85.6312 157.142 87.2434C157.357 87.7522 157.118 88.3388 156.609 88.5535C156.101 88.7682 155.514 88.5298 155.299 88.021C155.02 87.3592 153.425 85.4409 149.376 86.0627C148.83 86.1465 148.319 85.772 148.235 85.2261C148.152 84.6802 148.526 84.1697 149.072 84.0859Z" fill="black"/>
<path fill-rule="evenodd" clip-rule="evenodd" d="M129.802 83.9921C133.001 82.93 136.019 83.5354 137.215 84.0122C137.728 84.2167 137.978 84.7984 137.774 85.3114C137.569 85.8244 136.987 86.0745 136.474 85.87C135.633 85.5346 133.105 85.0027 130.432 85.8902C129.908 86.0642 129.342 85.7804 129.168 85.2562C128.994 84.732 129.278 84.1661 129.802 83.9921Z" fill="black"/>
<path fill-rule="evenodd" clip-rule="evenodd" d="M143.984 90.6785C144.53 90.602 145.036 90.9834 145.112 91.5304C145.304 92.8993 145.47 94.9895 145.325 96.8049C145.253 97.7043 145.099 98.6128 144.788 99.3464C144.484 100.065 143.918 100.85 142.913 101C142.367 101.082 141.858 100.705 141.776 100.159C141.695 99.6126 142.071 99.1037 142.618 99.0221L142.618 99.022C142.63 99.0203 142.654 99.0167 142.705 98.9667C142.767 98.9052 142.855 98.7835 142.947 98.566C143.135 98.1228 143.266 97.4624 143.331 96.6454C143.46 95.0281 143.312 93.0954 143.132 91.8073C143.055 91.2603 143.437 90.7549 143.984 90.6785Z" fill="black"/>
<path d="M131.559 128.647C130.103 124.701 131.435 122.046 132.727 121.54C140.516 128.218 152.329 125.739 156.705 121.691C158.263 123.027 157.357 126.978 156.705 128.192C148.27 136.934 136.264 132.037 131.559 128.647Z" fill="black"/>
<path fill-rule="evenodd" clip-rule="evenodd" d="M131.896 128.032C132.026 128.568 131.697 129.109 131.16 129.239C128.265 129.942 123.829 133.138 121.265 142.406C118.699 151.682 118.062 166.911 122.735 191.32C122.839 191.862 122.484 192.386 121.941 192.49C121.399 192.594 120.875 192.238 120.771 191.696C116.07 167.145 116.655 151.569 119.337 141.873C122.022 132.169 126.858 128.225 130.689 127.296C131.225 127.165 131.766 127.495 131.896 128.032Z" fill="black"/>
<path d="M92.7799 80.1992C87.2609 76.5277 94.1436 75.3661 98.2748 75.2442L98.539 77.9675L108.607 79.5006C105.631 81.2632 98.2989 83.8706 92.7799 80.1992Z" fill="black"/>
<path fill-rule="evenodd" clip-rule="evenodd" d="M101.153 64.7265C101.144 64.1743 101.584 63.7191 102.136 63.7098C102.666 63.7009 103.164 63.6948 103.645 63.689C105.891 63.6616 107.764 63.6388 110.745 63.3496C111.295 63.2962 111.784 63.6986 111.837 64.2483C111.891 64.798 111.488 65.2869 110.938 65.3402C107.867 65.6381 105.91 65.6618 103.654 65.6891C103.177 65.6949 102.687 65.7008 102.17 65.7095C101.618 65.7189 101.162 65.2788 101.153 64.7265Z" fill="black"/>
<path fill-rule="evenodd" clip-rule="evenodd" d="M113.725 64.4947C114.274 64.4414 114.763 64.8438 114.816 65.3935L115.919 76.7596C115.972 77.3093 115.57 77.7982 115.02 77.8515C114.471 77.9048 113.982 77.5024 113.928 76.9527L112.826 65.5866C112.772 65.0369 113.175 64.548 113.725 64.4947Z" fill="black"/>
<path fill-rule="evenodd" clip-rule="evenodd" d="M96.4828 67.0961C96.4711 66.5439 96.9093 66.0868 97.4615 66.0752L105.333 65.9092C105.885 65.8975 106.342 66.3357 106.354 66.8879C106.366 67.44 105.927 67.8971 105.375 67.9087L97.5036 68.0747C96.9515 68.0864 96.4944 67.6482 96.4828 67.0961Z" fill="black"/>
<path fill-rule="evenodd" clip-rule="evenodd" d="M109.042 66.7415C109.592 66.6882 110.081 67.0906 110.134 67.6403L111.248 79.1248C111.302 79.6745 110.899 80.1634 110.35 80.2167C109.8 80.27 109.311 79.8676 109.258 79.3179L108.144 67.8334C108.09 67.2837 108.493 66.7948 109.042 66.7415Z" fill="black"/>
<path fill-rule="evenodd" clip-rule="evenodd" d="M115.822 76.5116C116.077 77.0011 115.888 77.6052 115.398 77.8609L110.621 80.356C110.131 80.6117 109.527 80.4221 109.271 79.9326C109.016 79.443 109.205 78.8389 109.695 78.5832L114.472 76.0881C114.962 75.8325 115.566 76.022 115.822 76.5116Z" fill="black"/>
<path fill-rule="evenodd" clip-rule="evenodd" d="M102.923 64.2619C103.176 64.7525 102.984 65.3558 102.494 65.6095L97.9415 67.9632C97.4509 68.2169 96.8476 68.0248 96.5939 67.5342C96.3403 67.0436 96.5323 66.4403 97.0229 66.1866L101.575 63.8329C102.066 63.5792 102.669 63.7713 102.923 64.2619Z" fill="black"/>
<path fill-rule="evenodd" clip-rule="evenodd" d="M97.279 66.2095C97.8287 66.1562 98.3176 66.5586 98.3709 67.1083L99.4275 78.0008C99.4808 78.5505 99.0784 79.0393 98.5287 79.0927C97.979 79.146 97.4902 78.7436 97.4368 78.1939L96.3802 67.3014C96.3269 66.7517 96.7293 66.2628 97.279 66.2095Z" fill="black"/>
<path fill-rule="evenodd" clip-rule="evenodd" d="M97.3098 77.8665C97.3781 77.3185 97.8778 76.9297 98.4259 76.998L110.281 78.4773C110.829 78.5456 111.218 79.0454 111.15 79.5934C111.082 80.1414 110.582 80.5303 110.034 80.4619L98.1783 78.9826C97.6302 78.9143 97.2414 78.4146 97.3098 77.8665Z" fill="black"/>
<path d="M18.1916 92.465C17.9884 89.1384 31.3522 88.9177 32.1925 88.9557L32.3992 91.0868L36.7004 93.5378C30.5985 94.2891 18.3541 95.1263 18.1916 92.465Z" fill="black"/>
<path fill-rule="evenodd" clip-rule="evenodd" d="M49.8034 75.8451C50.3531 75.7918 50.842 76.1942 50.8953 76.7439L52.0668 88.8204C52.1201 89.3701 51.7177 89.8589 51.168 89.9123C50.6183 89.9656 50.1294 89.5632 50.0761 89.0135L48.9047 76.937C48.8513 76.3873 49.2537 75.8984 49.8034 75.8451Z" fill="black"/>
<path fill-rule="evenodd" clip-rule="evenodd" d="M39.6865 78.7387C40.2362 78.6853 40.725 79.0877 40.7784 79.6374L42.0647 92.8979C42.118 93.4476 41.7156 93.9365 41.1659 93.9898C40.6162 94.0431 40.1273 93.6407 40.074 93.091L38.7877 79.8305C38.7344 79.2808 39.1368 78.792 39.6865 78.7387Z" fill="black"/>
<path fill-rule="evenodd" clip-rule="evenodd" d="M30.8635 76.4873C31.4132 76.4339 31.902 76.8363 31.9554 77.386L33.2417 90.6465C33.295 91.1962 32.8926 91.6851 32.3429 91.7384C31.7932 91.7917 31.3043 91.3893 31.251 90.8396L29.9647 77.5791C29.9114 77.0294 30.3138 76.5406 30.8635 76.4873Z" fill="black"/>
<path fill-rule="evenodd" clip-rule="evenodd" d="M41.0249 73.8695C41.2115 74.3893 40.9414 74.9619 40.4216 75.1485L31.2979 78.4238C30.7781 78.6104 30.2054 78.3403 30.0188 77.8204C29.8322 77.3006 30.1023 76.728 30.6221 76.5414L39.7458 73.2661C40.2656 73.0795 40.8383 73.3497 41.0249 73.8695Z" fill="black"/>
<path fill-rule="evenodd" clip-rule="evenodd" d="M50.8499 76.4471C51.0018 76.9781 50.6944 77.5317 50.1635 77.6835L40.0467 80.5771C39.5157 80.7289 38.9621 80.4216 38.8102 79.8906C38.6584 79.3596 38.9657 78.806 39.4967 78.6542L49.6135 75.7606C50.1445 75.6088 50.698 75.9161 50.8499 76.4471Z" fill="black"/>
<path fill-rule="evenodd" clip-rule="evenodd" d="M52.0089 88.6578C52.2174 89.1693 51.9718 89.7529 51.4604 89.9613L41.4585 94.0388C40.947 94.2473 40.3634 94.0018 40.1549 93.4903C39.9465 92.9789 40.192 92.3953 40.7034 92.1868L50.7054 88.1093C51.2168 87.9008 51.8004 88.1464 52.0089 88.6578Z" fill="black"/>
<path fill-rule="evenodd" clip-rule="evenodd" d="M39.1152 73.9589C39.2524 73.4239 39.7973 73.1015 40.3323 73.2387L50.1371 75.7534C50.6721 75.8906 50.9946 76.4355 50.8573 76.9705C50.7201 77.5055 50.1752 77.8279 49.6403 77.6907L39.8354 75.176C39.3005 75.0388 38.978 74.4938 39.1152 73.9589Z" fill="black"/>
<path fill-rule="evenodd" clip-rule="evenodd" d="M29.9959 77.3818C30.1169 76.843 30.6518 76.5043 31.1907 76.6253L40.1093 78.6284C40.6482 78.7495 40.9869 79.2844 40.8659 79.8233C40.7449 80.3621 40.2099 80.7009 39.671 80.5798L30.7524 78.5767C30.2136 78.4557 29.8748 77.9207 29.9959 77.3818Z" fill="black"/>
<path d="M62.591 87.5605C60.045 83.9831 66.9453 82.756 70.7136 82.5897L70.9778 85.3129L83.3105 85.5507C77.4648 87.7112 65.137 91.1379 62.591 87.5605Z" fill="black"/>
<path fill-rule="evenodd" clip-rule="evenodd" d="M89.4803 79.0939C89.9112 79.4395 89.9803 80.0689 89.6347 80.4997L85.4766 85.6835C85.131 86.1143 84.5016 86.1834 84.0708 85.8378C83.64 85.4922 83.5709 84.8629 83.9165 84.4321L88.0746 79.2483C88.4201 78.8174 89.0495 78.7483 89.4803 79.0939Z" fill="black"/>
<path fill-rule="evenodd" clip-rule="evenodd" d="M69.1917 71.0754C69.1765 70.5233 69.6117 70.0634 70.1638 70.0482L82.2023 69.7171C82.7544 69.7019 83.2142 70.1371 83.2294 70.6892C83.2446 71.2413 82.8094 71.7011 82.2573 71.7163L70.2188 72.0475C69.6667 72.0627 69.2069 71.6274 69.1917 71.0754Z" fill="black"/>
<path fill-rule="evenodd" clip-rule="evenodd" d="M73.7484 67.549C73.7206 66.9974 74.1452 66.5277 74.6968 66.4999L87.5411 65.8515C88.0926 65.8237 88.5624 66.2482 88.5902 66.7998C88.6181 67.3514 88.1935 67.8211 87.6419 67.849L74.7976 68.4973C74.246 68.5252 73.7763 68.1006 73.7484 67.549Z" fill="black"/>
<path fill-rule="evenodd" clip-rule="evenodd" d="M69.9013 70.0722C70.4528 70.0426 70.9238 70.4657 70.9534 71.0171L71.6937 84.8086C71.7233 85.3601 71.3002 85.8312 70.7487 85.8608C70.1972 85.8904 69.7262 85.4673 69.6966 84.9158L68.9563 71.1243C68.9267 70.5728 69.3498 70.1018 69.9013 70.0722Z" fill="black"/>
<path fill-rule="evenodd" clip-rule="evenodd" d="M87.5178 66.0916C88.0675 66.0383 88.5563 66.4407 88.6097 66.9904L89.827 79.5405C89.8804 80.0902 89.478 80.579 88.9283 80.6324C88.3786 80.6857 87.8897 80.2833 87.8364 79.7336L86.619 67.1835C86.5657 66.6338 86.9681 66.1449 87.5178 66.0916Z" fill="black"/>
<path fill-rule="evenodd" clip-rule="evenodd" d="M83.6237 73.9986C84.1735 73.9453 84.6623 74.3477 84.7156 74.8974L85.6918 84.9611C85.7451 85.5108 85.3428 85.9997 84.793 86.053C84.2433 86.1063 83.7545 85.7039 83.7012 85.1542L82.725 75.0905C82.6716 74.5408 83.074 74.0519 83.6237 73.9986Z" fill="black"/>
<path fill-rule="evenodd" clip-rule="evenodd" d="M75.5489 66.901C75.8789 67.3438 75.7875 67.9703 75.3447 68.3004L70.5522 71.8725C70.1094 72.2026 69.4829 72.1112 69.1528 71.6684C68.8228 71.2256 68.9142 70.599 69.357 70.269L74.1495 66.6968C74.5923 66.3667 75.2188 66.4581 75.5489 66.901Z" fill="black"/>
<path fill-rule="evenodd" clip-rule="evenodd" d="M69.5881 84.9875C69.5906 84.4352 70.0404 83.9896 70.5927 83.9922L84.7014 84.0577C85.2537 84.0603 85.6993 84.5101 85.6967 85.0624C85.6942 85.6147 85.2444 86.0603 84.6921 86.0577L70.5834 85.9922C70.0311 85.9896 69.5855 85.5398 69.5881 84.9875Z" fill="black"/>
</svg>
