<svg width="120" height="120" viewBox="0 0 120 120" fill="none" xmlns="http://www.w3.org/2000/svg">
<g clip-path="url(#clip0_8271_4550)">
<path fill-rule="evenodd" clip-rule="evenodd" d="M79.1171 78.6729C78.7619 78.8351 78.3401 78.6729 78.1787 78.3281C78.0152 77.9631 78.1706 77.5371 78.5258 77.3749C80.4328 76.3406 83.3911 75.5091 86.0609 75.1441C88.4926 74.7993 90.6781 74.9209 91.7396 75.3063C93.8403 76.158 94.4921 78.0037 93.8484 79.9303C93.5961 80.6807 93.1017 81.4715 92.3369 82.1813C91.5862 82.8911 90.5611 83.5199 89.2756 83.9863C86.5412 84.8787 83.9986 85.2031 81.803 85.122C77.9829 84.98 75.2647 83.7429 74.4696 82.9519C74.175 82.6883 74.1427 82.2421 74.397 81.9379C74.6532 81.654 75.1012 81.6135 75.3959 81.8771C76.1466 82.445 78.5581 82.9926 81.7546 82.7289C83.6737 82.587 85.8632 82.1204 88.1698 81.0861C89.3523 80.6197 90.1757 79.9504 90.6236 79.2609C90.8174 78.9567 91.005 78.6931 90.9021 78.4295C90.8436 78.2875 90.7245 78.1862 90.549 78.1051C89.6106 77.6386 87.3888 77.5371 85.0439 77.6791C82.9068 77.8008 80.685 78.0848 79.1171 78.6729Z" fill="black"/>
<path fill-rule="evenodd" clip-rule="evenodd" d="M102.248 69.4453C102.625 69.3439 103.012 69.567 103.109 69.9523C103.208 70.3377 102.982 70.723 102.603 70.8244C100.458 71.4125 97.9574 71.6558 95.8042 71.6558C93.7277 71.6355 91.968 71.3516 91.0841 70.9258C90.3395 70.5607 89.8996 70.0943 89.6715 69.6075C89.4092 69.0397 89.4092 68.3705 89.7038 67.5795C90.1942 66.2816 91.6633 64.4969 93.7216 62.0633C98.4498 56.466 101.465 50.5848 101.003 45.9609C100.666 42.5944 98.3126 40.0391 93.3947 38.8629C83.5974 36.5104 68.0185 39.0655 52.9582 45.3929C40.1157 50.7875 27.6278 58.9401 19.5074 69.4249C14.7937 75.4279 12.943 82.9518 14.8662 89.1981C16.6584 95.0185 21.7665 99.6222 30.7482 100.839C50.016 103.516 67.9418 100.697 81.315 95.7488C90.5937 92.3011 97.6789 87.8394 101.451 83.4589C104.11 80.356 105.119 77.3545 103.816 74.7992C103.634 74.4544 103.767 74.0287 104.112 73.8462C104.457 73.6637 104.887 73.7852 105.069 74.13C106.669 77.1314 105.767 80.7819 102.682 84.5135C98.8534 89.1373 91.6068 93.9234 82.0375 97.655C68.4382 102.948 50.135 106.112 30.3809 103.678C19.9271 102.36 14.0673 96.8641 11.9268 90.1311C9.6646 82.9925 11.6184 74.3329 16.9718 67.4173C25.4649 56.5877 38.4246 48.0904 51.818 42.6147C67.5402 36.1859 83.8193 33.9348 93.9698 36.5307C100.101 38.1328 102.817 41.5399 103.162 45.7581C103.576 50.8079 100.367 57.257 95.0999 63.2599C93.5461 65.0243 92.3252 66.4032 91.6471 67.4983C91.292 68.0865 91.0438 68.5125 91.1769 68.8775C91.2597 69.1209 91.4857 69.2831 91.8166 69.4453C92.7106 69.9118 94.6842 70.1349 96.906 70.0943C98.6617 70.0741 100.569 69.8712 102.248 69.4453Z" fill="black"/>
<path fill-rule="evenodd" clip-rule="evenodd" d="M82.5919 116.313C82.5657 116.698 82.2287 117.002 81.8392 116.982C81.4497 116.941 81.1551 116.617 81.1813 116.211C81.1813 116.211 80.9674 113.555 80.8887 110.107C80.8706 109.336 80.8746 108.505 80.8928 107.673C80.9049 107.146 80.919 106.599 80.9634 106.051C81.0824 104.672 81.2802 103.313 81.4739 102.036C81.9946 98.6285 82.5556 96.0326 82.5556 96.0326C82.5818 95.6472 82.9188 95.3431 83.3103 95.3634C83.6998 95.4039 83.9944 95.7284 83.9661 96.134C83.9661 96.134 84.1679 98.7908 84.2245 102.238C84.2446 103.516 84.2547 104.895 84.1841 106.274C84.1559 106.822 84.0953 107.369 84.0348 107.896C83.9399 108.728 83.833 109.539 83.7099 110.31C83.165 113.717 82.5919 116.313 82.5919 116.313ZM84.8056 83.8037C84.7794 84.189 84.4424 84.4729 84.0529 84.4527C83.6635 84.4324 83.3688 84.0876 83.3951 83.7023C83.3951 83.7023 83.5888 75.0223 84.0307 63.9493C84.1316 61.4143 84.2608 58.7577 84.4081 56.0604C84.5009 54.3163 84.5978 52.5519 84.7269 50.8078C85.0559 46.3056 85.4635 41.8236 85.855 37.6865C86.8923 26.6541 87.8649 18.0351 87.8649 18.0351C87.8912 17.6295 88.2302 17.3456 88.6197 17.3659C89.0091 17.4065 89.3038 17.7309 89.2755 18.1365C89.2755 18.1365 89.0697 26.8164 88.6055 37.8691C88.43 42.0265 88.2282 46.5288 87.9457 51.031C87.8347 52.7751 87.6914 54.5394 87.5501 56.2632C87.3281 58.9808 87.0961 61.6171 86.8519 64.1521C85.7904 75.1642 84.8056 83.8037 84.8056 83.8037Z" fill="black"/>
<path fill-rule="evenodd" clip-rule="evenodd" d="M94.5169 2.31808C95.0577 4.28525 95.6126 8.13836 95.3604 11.6266C95.2393 13.3301 94.8942 14.9119 94.3393 16.1896C94.0023 16.9602 93.5583 17.5889 93.0558 18.1162C91.1912 19.982 88.7676 20.1849 87.0866 19.2114C85.5065 18.2988 84.3865 16.3113 85.111 13.4924C85.3693 12.5595 86.0574 11.5861 87.0987 10.5315C88.3216 9.31473 90.0127 7.895 91.4192 5.74531C92.0751 4.75158 92.6825 3.61597 93.1426 2.27748C93.2274 1.95299 93.518 1.72999 93.8469 1.75027C94.1738 1.75027 94.4503 1.99359 94.5169 2.31808ZM93.2798 6.37411C93.0074 6.94195 92.7148 7.48952 92.4101 7.99652C91.4152 9.6595 90.2811 10.9573 89.3589 12.0728C88.6889 12.8637 88.1199 13.5126 88.0008 14.1616C87.7829 15.2567 88.0573 16.0476 88.6687 16.3924C89.3064 16.7574 90.1742 16.5749 90.8905 15.8854C91.9116 14.9728 92.4363 13.2085 92.7875 11.3021C93.0861 9.65946 93.2375 7.93568 93.2798 6.37411Z" fill="black"/>
<path fill-rule="evenodd" clip-rule="evenodd" d="M108.982 0.634309C109.341 2.67916 109.468 6.63639 108.719 10.1C108.149 12.7277 106.975 14.9763 105.341 16.1892C103.215 17.6701 100.801 17.6459 99.1646 16.6323C97.4514 15.5688 96.3894 13.4193 97.3488 10.573C97.7967 9.31946 98.4174 8.39312 99.2049 7.62978C100.335 6.54012 101.757 5.81241 103.24 4.9284C104.786 3.99064 106.4 2.81605 107.633 0.431507C107.764 0.120612 108.072 -0.0467577 108.387 0.0114463C108.704 0.049573 108.947 0.323819 108.982 0.634309ZM107.426 3.87874C107.151 4.25433 106.861 4.6075 106.564 4.93949C105.28 6.37836 103.836 7.2671 102.563 8.25799C101.501 9.07 100.593 9.94111 100.193 11.4658C99.8726 12.612 100.162 13.4638 100.84 13.8721C101.586 14.3087 102.646 14.2524 103.626 13.6142C104.851 12.8628 105.64 11.2214 106.238 9.41419C106.837 7.60703 107.227 5.59099 107.426 3.87874Z" fill="black"/>
<path fill-rule="evenodd" clip-rule="evenodd" d="M75.6204 119.456C75.5255 119.841 75.1421 120.065 74.7627 119.983C74.3834 119.882 74.1533 119.497 74.2462 119.111C74.2462 119.111 74.5751 116.13 75.1946 112.317C75.3359 111.445 75.5033 110.533 75.693 109.62C75.8121 109.032 75.9352 108.424 76.0906 107.836C76.4861 106.335 76.9583 104.854 77.4083 103.475C78.609 99.8046 79.6927 97.0059 79.6927 97.0059C79.7856 96.6205 80.171 96.3975 80.5484 96.4989C80.9277 96.58 81.1598 96.9653 81.0649 97.3507C81.0649 97.3507 80.7239 100.332 80.0842 104.145C79.8441 105.564 79.5736 107.106 79.2225 108.627C79.0853 109.215 78.9158 109.803 78.7483 110.391C78.488 111.283 78.2176 112.155 77.9391 112.987C76.7141 116.658 75.6204 119.456 75.6204 119.456ZM84.3623 83.9658C84.2675 84.3511 83.8841 84.5946 83.5047 84.4932C83.1273 84.3918 82.8953 84.0063 82.9881 83.621C82.9881 83.621 84.8224 74.5355 87.351 62.9758C87.9302 60.3191 88.5598 57.5611 89.2136 54.7421C89.6354 52.9169 90.0632 51.0917 90.5233 49.2665C91.6957 44.602 92.9469 39.9578 94.1173 35.6584C97.225 24.2406 99.8161 15.3174 99.8161 15.3174C99.911 14.9524 100.294 14.709 100.674 14.8104C101.051 14.8915 101.283 15.2769 101.19 15.6622C101.19 15.6622 99.3439 24.7681 96.7932 36.3278C95.8326 40.6677 94.7833 45.3524 93.6552 50.0371C93.2133 51.8623 92.741 53.6876 92.2708 55.4925C91.5423 58.2912 90.8139 61.0289 90.0955 63.645C86.9636 75.0627 84.3623 83.9658 84.3623 83.9658Z" fill="black"/>
<path fill-rule="evenodd" clip-rule="evenodd" d="M77.354 44.1357C82.6493 40.3433 85.8922 45.1294 83.6764 47.2791C79.7111 51.1121 72.2344 53.1603 66.1643 52.268C61.9003 51.619 61.8034 46.7518 67.0825 46.7923C72.2344 46.8532 74.5611 46.1232 77.354 44.1357Z" fill="black"/>
<path fill-rule="evenodd" clip-rule="evenodd" d="M53.1762 55.6547C60.5964 54.4176 60.102 60.096 55.9974 62.0023C52.1652 63.787 46.2021 64.0507 42.5495 61.6779C39.3288 59.589 43.2537 52.5315 48.3815 54.6406C49.8627 55.249 51.6385 55.9183 53.1762 55.6547Z" fill="black"/>
<path fill-rule="evenodd" clip-rule="evenodd" d="M39.0608 64.7404C45.0663 63.1788 46.5193 71.0475 40.0839 71.8993C38.413 72.1224 31.6245 73.3594 28.2383 71.7979C25.9113 70.7027 25.2694 66.9103 29.2089 65.6732C31.2068 65.0445 34.9522 65.8153 39.0608 64.7404Z" fill="black"/>
<path fill-rule="evenodd" clip-rule="evenodd" d="M36.3679 77.5981C41.7902 76.4624 42.2544 81.4511 36.9571 84.7365C33.7304 86.724 25.3347 86.4808 22.1826 83.5807C20.2657 81.8163 20.6722 77.9225 23.7914 77.1113C26.9108 76.2798 31.7124 78.5715 36.3679 77.5981Z" fill="black"/>
<path fill-rule="evenodd" clip-rule="evenodd" d="M39.1127 88.8128C42.8117 87.8596 46.7165 91.5708 44.5956 93.6596C42.1195 96.1338 34.8426 98.4458 29.9833 96.1338C26.7846 94.6128 26.7334 91.4695 29.8199 90.3744C32.9054 89.2793 34.8104 89.9485 39.1127 88.8128Z" fill="black"/>
<path fill-rule="evenodd" clip-rule="evenodd" d="M63.2479 87.9205C69.1263 85.933 72.2401 91.571 68.6924 93.8829C64.4869 96.6005 58.9092 98.5676 54.2335 97.0872C50.6435 95.9515 50.5789 91.206 54.9701 90.6787C58.3885 90.2528 60.9373 88.7114 63.2479 87.9205Z" fill="black"/>
</g>
<defs>
<clipPath id="clip0_8271_4550">
<rect width="98.2677" height="120" fill="white" transform="translate(11)"/>
</clipPath>
</defs>
</svg>
