<svg width="120" height="120" viewBox="0 0 120 120" fill="none" xmlns="http://www.w3.org/2000/svg">
<g clip-path="url(#clip0_8271_4569)">
<path fill-rule="evenodd" clip-rule="evenodd" d="M22.9942 27.953C22.961 29.447 23.1328 33.7102 23.371 39.0119C23.7828 48.1759 24.492 60.3279 25.216 66.6499C25.3342 67.6883 25.3157 68.8179 25.397 69.5284C27.0535 69.2551 31.4453 68.3625 37.1741 67.2329C44.5189 65.7754 53.9894 63.8806 62.7895 62.1316C74.1899 59.8543 84.4619 57.8137 87.5036 57.1942L84.9199 20.1008C84.8922 19.7364 85.1581 19.4267 85.5146 19.4085C85.871 19.372 86.1831 19.6454 86.2108 19.9915L89.7013 57.9778C89.7438 58.5061 89.3818 58.9797 88.8573 59.0891C88.8573 59.0891 62.9926 64.7551 44.1532 68.7086C33.5396 70.9313 25.107 72.5709 24.5696 72.5345C24.2279 72.5163 23.8493 72.407 23.5058 72.0609C23.3211 71.8787 23.0275 71.4233 22.8409 70.6399C22.5141 69.2917 22.1742 66.322 21.8769 62.5325C21.3192 55.4454 20.8649 45.3702 20.634 37.7912C20.453 31.8518 20.4512 27.3882 20.5823 26.8599C20.6414 26.623 20.7744 26.3134 21.1326 26.0584C21.3469 25.8944 21.84 25.6757 22.6083 25.4753C24.5197 24.9652 28.651 24.2365 33.9237 23.4531C52.1278 20.7203 84.0519 17.0036 84.0519 17.0036C84.4065 16.9671 84.7297 17.2039 84.7758 17.5683C84.822 17.9144 84.5708 18.2242 84.2163 18.2789C84.2163 18.2789 68.5793 20.4286 52.981 22.7606C41.6102 24.4732 30.2633 26.2587 25.0461 27.4064C24.2519 27.5886 23.456 27.8073 22.9942 27.953ZM25.4487 69.8746C25.5133 70.1661 25.6167 70.3118 25.794 70.2572C26.0415 70.1661 25.6592 69.9657 25.4487 69.8746Z" fill="black"/>
<path fill-rule="evenodd" clip-rule="evenodd" d="M86.1904 35.1131C86.3105 34.767 86.6817 34.603 87.0178 34.7123C87.3539 34.8398 87.5294 35.2042 87.4093 35.5321C87.4093 35.5321 86.5561 38.939 85.291 43.2568C85.0029 44.2406 84.6816 45.2609 84.338 46.2994C84.1201 46.9735 83.8967 47.6477 83.6455 48.3218C83.0028 50.0161 82.2936 51.6923 81.6251 53.2409C79.8447 57.3766 78.3211 60.5466 78.3211 60.5466C78.2011 60.8745 77.8299 61.0566 77.4938 60.9291C77.1576 60.8198 76.9822 60.4555 77.1022 60.1276C77.1022 60.1276 77.9647 56.7206 79.2501 52.4027C79.7321 50.7995 80.264 49.0505 80.8661 47.3379C81.1006 46.6638 81.3647 46.0079 81.6251 45.352C82.0314 44.3317 82.4432 43.3298 82.8551 42.4007C84.6576 38.265 86.1904 35.1131 86.1904 35.1131Z" fill="black"/>
<path fill-rule="evenodd" clip-rule="evenodd" d="M73.3866 18.7162C73.5251 18.3883 73.9055 18.2242 74.2343 18.37C74.563 18.4975 74.7181 18.88 74.5815 19.208C74.5815 19.208 72.4392 25.1656 69.5397 32.7082C68.8767 34.439 68.162 36.2427 67.4195 38.0828C66.9431 39.2488 66.4592 40.4512 65.9495 41.6354C64.6437 44.6416 63.2716 47.6294 61.9917 50.3805C58.588 57.7227 55.7883 63.4251 55.7883 63.4251C55.6498 63.753 55.2693 63.8989 54.9406 63.7713C54.6119 63.6256 54.4549 63.2611 54.5934 62.9332C54.5934 62.9332 56.7449 56.9757 59.6647 49.4331C60.7636 46.5909 61.9603 43.5302 63.2254 40.5058C63.7204 39.3216 64.2448 38.1373 64.762 36.9713C65.5672 35.1677 66.3687 33.4005 67.1517 31.7243C70.5776 24.4004 73.3866 18.7162 73.3866 18.7162Z" fill="black"/>
<path fill-rule="evenodd" clip-rule="evenodd" d="M63.9932 19.9552C64.1336 19.6272 64.5159 19.4814 64.8427 19.6089C65.1715 19.7547 65.3229 20.1374 65.1807 20.4471C65.1807 20.4471 62.9941 26.3682 60.0355 33.8379C59.3595 35.5505 58.6319 37.3359 57.8747 39.1396C57.389 40.3238 56.8977 41.4897 56.3769 42.6557C55.0491 45.6436 53.6547 48.5952 52.3546 51.328C48.8936 58.5973 46.0514 64.2269 46.0514 64.2269C45.9092 64.5548 45.5287 64.7006 45.2 64.5548C44.8713 64.4273 44.7198 64.0448 44.862 63.7168C44.862 63.7168 47.0597 57.8138 50.0368 50.3441C51.156 47.5384 52.3767 44.5141 53.6658 41.508C54.17 40.342 54.7019 39.1761 55.2282 38.0283C56.0482 36.2428 56.8626 34.4938 57.6586 32.8359C61.1399 25.5666 63.9932 19.9552 63.9932 19.9552Z" fill="black"/>
<path fill-rule="evenodd" clip-rule="evenodd" d="M44.1258 22.7061C44.2717 22.3782 44.6558 22.2325 44.9809 22.3782C45.3078 22.524 45.4537 22.9066 45.3078 23.2345C45.3078 23.2345 43.3667 28.3904 40.724 34.9127C40.1182 36.4067 39.4663 37.9554 38.7866 39.5404C38.3508 40.5606 37.9094 41.5809 37.4403 42.6011C36.2399 45.2064 34.9748 47.757 33.7928 50.1255C30.6496 56.4292 28.0566 61.3119 28.0566 61.3119C27.9107 61.6216 27.5284 61.7674 27.2015 61.6216C26.8765 61.4941 26.7288 61.1114 26.8747 60.7835C26.8747 60.7835 28.8267 55.6275 31.4899 49.1234C32.4908 46.6639 33.5823 44.0222 34.7439 41.4169C35.1983 40.3966 35.6803 39.3763 36.1568 38.3743C36.8973 36.8257 37.6379 35.3135 38.36 33.8742C41.5236 27.5705 44.1258 22.7061 44.1258 22.7061Z" fill="black"/>
<path fill-rule="evenodd" clip-rule="evenodd" d="M34.6493 24.091C34.8173 23.7813 35.2107 23.6719 35.5246 23.8358C35.8405 23.9998 35.9587 24.3824 35.7888 24.6922C35.7888 24.6922 34.4258 27.9351 32.5162 32.0343C32.0804 32.9635 31.6057 33.929 31.1089 34.9129C30.7913 35.5505 30.4662 36.1882 30.1172 36.8077C29.2215 38.3927 28.263 39.9595 27.3673 41.3805C24.9738 45.2247 22.9848 48.1215 22.9848 48.1215C22.8149 48.4494 22.4233 48.5588 22.1075 48.3948C21.7936 48.2308 21.6754 47.83 21.8453 47.5203C21.8453 47.5203 23.2175 44.2774 25.1456 40.2146C25.8695 38.6843 26.6599 37.0444 27.5168 35.4229C27.853 34.7853 28.2149 34.166 28.5732 33.5648C29.131 32.6174 29.6887 31.6881 30.2391 30.8136C32.651 27.0059 34.6493 24.091 34.6493 24.091Z" fill="black"/>
<path fill-rule="evenodd" clip-rule="evenodd" d="M86.2718 62.4596C85.0271 62.7147 74.358 65.2836 63.0241 67.9982C54.2702 70.0934 45.1247 72.316 39.6138 73.7188C38.7255 73.9375 37.935 74.1378 37.2554 74.32C38.6978 75.3403 40.7053 76.7067 42.5779 77.9638C44.1791 79.0387 45.6861 80.0226 46.6945 80.5874C46.918 80.6967 47.1802 80.8242 47.3261 80.8971C47.5551 80.8607 47.9928 80.806 48.4102 80.7149C50.8923 80.2412 56.056 79.0751 62.1524 77.6905C77.1799 74.2836 97.8274 69.492 97.8274 69.492C98.1727 69.4009 98.5254 69.6013 98.6141 69.9475C98.7027 70.2937 98.4922 70.64 98.1469 70.731C98.1469 70.731 77.6804 76.2695 62.7434 80.0773C56.6433 81.6441 51.4611 82.9012 48.9716 83.4113C47.8266 83.6663 47.1045 83.721 46.9327 83.6846C46.3824 83.6117 44.4894 82.6097 42.2825 81.2069C38.3764 78.7109 33.2829 75.0489 32.9874 74.7027C32.6624 74.3019 32.5627 73.8828 32.6882 73.3909C32.7436 73.1905 32.8711 72.8079 33.3531 72.4981C33.4621 72.4253 33.7225 72.2978 34.1417 72.1702C34.9247 71.9152 36.6035 71.4779 38.9046 70.9314C44.4451 69.5832 53.6515 67.5427 62.4737 65.6479C74.4817 63.0608 85.7824 60.7834 86.2219 60.747C86.3623 60.7288 86.5876 60.7471 86.8683 60.8564C87.2912 61.0386 88.0743 61.5123 89.0254 62.1682C92.1613 64.3362 97.349 68.4537 97.349 68.4537C97.6316 68.6723 97.6814 69.073 97.4635 69.3463C97.2437 69.6196 96.8356 69.6744 96.5549 69.4557C96.5549 69.4557 93.2085 66.9778 90.2388 64.9373C88.9035 64.0264 87.6477 63.1884 86.8147 62.7329C86.6134 62.6236 86.3826 62.5143 86.2718 62.4596Z" fill="black"/>
<path fill-rule="evenodd" clip-rule="evenodd" d="M118.711 77.0166C119.008 77.217 119.089 77.5996 118.892 77.8911C118.694 78.2008 118.291 78.2737 117.994 78.0733C117.994 78.0733 113.885 75.8141 108.721 72.7533C107.541 72.061 106.315 71.3141 105.074 70.5489C104.274 70.0388 103.467 69.5468 102.676 69.0185C100.654 67.6521 98.6763 66.2491 96.8516 64.9374C91.9908 61.4394 88.275 58.5791 88.275 58.5791C87.9777 58.3969 87.8983 57.9962 88.0959 57.7047C88.2935 57.4132 88.6942 57.3221 88.9916 57.5225C88.9916 57.5225 93.097 59.7998 98.2478 62.8606C100.183 64.0083 102.265 65.2654 104.311 66.5954C105.111 67.1055 105.896 67.6339 106.669 68.1805C107.873 69.0003 109.046 69.8384 110.154 70.64C115.002 74.1563 118.711 77.0166 118.711 77.0166Z" fill="black"/>
<path fill-rule="evenodd" clip-rule="evenodd" d="M58.9042 93.0491C59.4527 93.0309 61.4085 92.5208 64.295 91.8285C67.1133 91.1544 70.746 90.2615 74.7868 89.2595C78.0908 88.4396 81.6699 87.5652 85.2952 86.6907C88.4643 85.9073 91.6686 85.1239 94.7601 84.3769C106.654 81.4983 116.861 79.0207 116.861 79.0207C117.206 78.9296 117.563 79.13 117.655 79.4761C117.749 79.8223 117.546 80.1684 117.201 80.2595C117.201 80.2595 105.712 83.6664 92.9244 87.2737C87.4781 88.8041 81.7992 90.3708 76.6724 91.719C71.8725 92.9761 67.5565 94.0512 64.3892 94.7799C61.2349 95.5087 59.1295 95.8547 58.6548 95.8183C58.3483 95.8001 57.7462 95.618 56.9447 95.1989C55.1145 94.2151 51.5778 91.8466 47.4945 88.9316C37.5513 81.8445 24.2726 71.6056 24.2726 71.6056C23.9845 71.3869 23.9273 70.9861 24.1397 70.6946C24.3539 70.4213 24.7602 70.3666 25.0465 70.567C25.0465 70.567 38.748 80.2048 48.911 86.9275C52.287 89.1684 55.2641 91.0815 57.218 92.1928C57.9161 92.5936 58.7379 92.9763 58.9042 93.0491Z" fill="black"/>
<path fill-rule="evenodd" clip-rule="evenodd" d="M113.562 83.8485C113.907 83.7392 114.264 83.9395 114.36 84.2856C114.458 84.6136 114.256 84.9779 113.913 85.069C113.913 85.069 102.73 88.476 90.2773 92.0651C84.9714 93.5773 79.4383 95.1441 74.4427 96.4741C68.8136 97.968 63.8678 99.1886 60.7172 99.8627C58.5785 100.318 57.1528 100.482 56.7317 100.409C56.2995 100.355 55.3983 99.9721 54.2016 99.2434C52.4286 98.1503 49.76 96.3101 46.7737 94.1056C38.1601 87.7837 26.8096 78.6743 26.1817 78.1642C25.1585 77.3443 24.6469 76.4334 24.3884 75.4678C24.0504 74.1925 24.1871 72.7531 24.0172 71.1681C23.971 70.8219 24.2222 70.4941 24.5768 70.4576C24.9314 70.403 25.2546 70.6581 25.3007 71.0042C25.5316 72.5164 25.4466 73.8645 25.8215 75.067C26.0357 75.7411 26.4291 76.3605 27.1808 76.9253C27.8253 77.399 39.5101 85.9982 48.2899 92.0286C51.2688 94.0874 53.9042 95.8364 55.6587 96.8566C56.3827 97.2757 56.8795 97.5673 57.138 97.6037C57.3652 97.6401 57.9986 97.4761 58.97 97.2939C61.0052 96.8749 64.1929 96.1097 68.0379 95.1623C70.7971 94.4882 73.8923 93.7229 77.1372 92.9031C81.5714 91.81 86.2808 90.644 90.7926 89.5145C102.9 86.5084 113.562 83.8485 113.562 83.8485Z" fill="black"/>
<path fill-rule="evenodd" clip-rule="evenodd" d="M71.2826 81.2432C72.4165 82.2452 74.2394 83.5023 75.4971 84.2857C75.7371 84.4315 75.9865 84.6319 76.1785 84.7777C76.1508 84.7777 76.1324 84.7776 76.1342 84.7958C76.1398 84.8687 76.2062 84.8688 76.3115 84.8506C76.4094 84.9053 76.4777 84.9235 76.5036 84.8506C76.511 84.8324 76.5073 84.8142 76.4962 84.8142C76.679 84.7595 76.9062 84.6866 77.1259 84.6501C78.2839 84.4315 80.1049 84.049 82.1142 83.6299C85.4496 82.9194 89.2891 82.0813 91.4148 81.4437C91.6253 81.389 91.8395 81.316 92.0316 81.2432C90.7425 79.9678 87.8412 78.0913 87.8412 78.0913C87.5346 77.9091 87.4349 77.5266 87.6196 77.2169C87.8024 76.9071 88.2013 76.816 88.5079 76.9982C88.5079 76.9982 91.6733 78.6926 93.208 79.9497C93.6974 80.3505 94.0225 80.7332 94.1684 81.0247C94.3568 81.3891 94.3198 81.7351 94.2238 82.0084C94.1592 82.1724 93.8951 82.5186 93.317 82.8101C92.5229 83.2109 90.7536 83.8485 88.6279 84.5044C85.4422 85.5064 81.4512 86.5813 78.9118 87.2007C77.3236 87.5651 76.2044 87.7109 75.9883 87.6927C75.7168 87.6745 74.9781 87.4012 74.0787 86.8364C72.664 85.9619 70.5476 84.3951 69.2825 83.1745C68.4995 82.4275 68.0193 81.7351 67.9048 81.3343C67.7958 80.9517 67.8106 80.6238 67.9103 80.3505C67.9953 80.1137 68.2187 79.6765 68.8448 79.385C69.3841 79.1117 70.5827 78.7473 72.1395 78.3829C77.1592 77.1987 86.0572 75.7594 86.0572 75.7594C86.4062 75.6865 86.7497 75.9051 86.8236 76.2513C86.8974 76.5975 86.674 76.9437 86.3249 77.0165C86.3249 77.0165 75.5081 79.7674 71.2826 81.2432ZM76.1785 84.7777C76.2192 84.7777 76.2764 84.8142 76.2967 84.8142C76.3374 84.8142 76.4574 84.7959 76.4962 84.8142C76.426 84.8324 76.3651 84.8506 76.3115 84.8506C76.2709 84.8324 76.2266 84.8141 76.1785 84.7777Z" fill="black"/>
<path fill-rule="evenodd" clip-rule="evenodd" d="M55.6736 98.114C55.9746 97.9318 56.3754 98.0228 56.5674 98.3143C56.7577 98.6058 56.669 99.0066 56.368 99.1888C56.368 99.1888 54.1075 100.683 52.1683 100.956C51.2763 101.084 50.4489 100.938 49.8247 100.464C48.8533 99.7353 41.7375 95.1261 31.2069 88.8224C28.9815 87.4924 26.6065 86.0894 24.1115 84.6137C21.8362 83.2655 19.4556 81.8627 17.0031 80.4234C12.4802 77.7452 7.70619 74.9214 2.71979 72.1521C0.640266 70.9679 -0.144653 69.5468 0.021561 68.4719C0.182235 67.4334 1.2571 66.2674 3.73184 65.8483C4.97289 65.6479 7.58615 65.3383 10.3878 65.0468C15.0935 64.5549 20.3181 64.0629 20.3181 64.0629C20.6727 64.0265 20.9959 64.2816 21.0384 64.6278C21.0808 64.974 20.8278 65.3018 20.4732 65.3382C20.4732 65.3382 13.9817 66.2857 8.98972 67.0873C6.91204 67.4153 5.09847 67.7249 4.13814 67.9253C3.45481 68.0711 2.93216 68.2715 2.56834 68.5084C2.43167 68.5813 2.31533 68.654 2.30241 68.7633C2.28948 68.8909 2.42613 68.9639 2.54433 69.0914C2.83797 69.4194 3.29784 69.729 3.89252 70.0205C8.98788 72.6622 13.917 75.2858 18.4935 77.9275C21.851 79.8587 25.0182 81.7899 27.9713 83.63C32.3594 86.3628 36.258 88.9316 39.5527 91.1725C46.0258 95.545 50.1387 98.6059 50.8534 99.2071C51.2597 99.535 51.8821 99.4985 52.5118 99.371C54.0613 99.0612 55.6736 98.114 55.6736 98.114Z" fill="black"/>
<path fill-rule="evenodd" clip-rule="evenodd" d="M24.3328 70.5304C24.6468 70.3482 25.0383 70.4758 25.2082 70.7856C25.3781 71.0953 25.2599 71.4779 24.946 71.6419C24.0706 72.1702 23.2081 71.9879 22.3659 71.2227C21.7713 70.6761 21.1895 69.7653 20.6429 68.5447C19.6345 66.3038 18.7222 62.9697 18.0204 59.1255C17.6861 57.3036 17.4072 55.3541 17.1893 53.3683C17.049 52.1112 16.9289 50.8177 16.8569 49.5242C16.7091 46.9006 16.6944 44.2771 16.7756 41.7993C16.9326 37.1171 17.4608 32.9451 18.2771 30.1941C18.652 28.937 19.0934 27.9531 19.5939 27.3337C20.3178 26.4227 21.1452 26.113 22.0612 26.4773C22.3973 26.6049 22.5746 26.9692 22.4564 27.2972C22.3382 27.6251 21.967 27.8072 21.6309 27.6797C21.2782 27.5886 21.0344 27.8256 20.798 28.19C20.4416 28.7365 20.1885 29.5564 19.9706 30.613C19.4147 33.3094 19.3113 37.3175 19.4276 41.7993C19.4904 44.2406 19.6345 46.7913 19.8044 49.342C19.8894 50.6173 19.9651 51.8744 20.0593 53.1133C20.2052 55.0627 20.3769 56.9575 20.5801 58.7611C21.0011 62.4596 21.5478 65.6843 22.305 67.907C22.6504 68.9273 23.0013 69.7107 23.4297 70.1844C23.7086 70.4941 23.9912 70.6762 24.3328 70.5304Z" fill="black"/>
<path fill-rule="evenodd" clip-rule="evenodd" d="M56.0206 98.6604C56.0206 98.6604 52.0222 101.156 50.3379 99.8263C48.6536 98.4963 28.2795 84.5043 3.30682 71.077C0.326053 69.4738 0.351913 67.579 3.93475 66.8867C7.23131 66.2673 20.3954 64.7004 20.3954 64.7004C21.4998 69.2187 22.9514 71.988 24.6394 71.077C24.645 71.077 24.6505 71.077 24.6579 71.077C24.994 73.6641 24.4566 75.8139 26.6801 77.5447C27.5869 78.2552 50.5558 95.8911 56.0206 98.6604Z" fill="black"/>
</g>
<defs>
<clipPath id="clip0_8271_4569">
<rect width="119" height="84" fill="white" transform="translate(0 17)"/>
</clipPath>
</defs>
</svg>
