<svg width="120" height="120" viewBox="0 0 120 120" fill="none" xmlns="http://www.w3.org/2000/svg">
<g clip-path="url(#clip0_8271_4589)">
<path fill-rule="evenodd" clip-rule="evenodd" d="M32.6721 84.7025C33.2763 84.4095 34.2747 83.8406 35.5596 83.0822C38.7006 81.2034 43.4459 78.2042 48.3337 75.0844C57.6299 69.1721 67.4105 62.8634 67.4105 62.8634C67.6866 62.6738 68.0651 62.7428 68.2561 63.0186C68.4453 63.2944 68.3759 63.6735 68.0981 63.8631C68.0981 63.8631 60.0207 69.6547 51.6291 75.4808C47.7224 78.187 43.7497 80.8931 40.4976 83.0305C37.5268 84.9783 35.1446 86.4606 33.9604 87.0812C33.4482 87.3397 33.0697 87.4604 32.8718 87.4949C32.5245 87.5639 32.2641 87.4949 32.0887 87.4259C31.6893 87.288 30.0728 86.3746 28.1281 85.2024C24.5027 82.9961 19.6255 79.8762 19.6255 79.8762C19.2452 79.6349 19.0108 79.2211 19.0004 78.773C18.9899 78.3248 19.207 77.9111 19.5768 77.6526C19.5768 77.6526 26.0741 73.24 33.4778 68.293C43.1768 61.8119 54.4194 54.4001 54.4194 54.4001C54.6955 54.2105 55.0757 54.2794 55.2667 54.5552C55.4594 54.831 55.3918 55.2102 55.1157 55.3998C55.1157 55.3998 44.2272 63.3116 34.7539 70.1202C29.7446 73.7055 25.1313 76.9976 22.7699 78.6696C24.8465 79.9624 28.3799 82.1515 30.7865 83.5821C31.5956 84.082 32.2606 84.4784 32.6721 84.7025Z" fill="black"/>
<path fill-rule="evenodd" clip-rule="evenodd" d="M56.4889 53.9177C56.2233 53.7281 56.1764 53.3315 56.3813 53.073C56.5879 52.8144 56.9699 52.7628 57.2356 52.9696C57.2356 52.9696 58.8521 53.797 60.8749 55.0036C61.3333 55.2793 61.7969 55.5896 62.2674 55.8999C62.5678 56.1067 62.8716 56.3136 63.1599 56.5549C63.8943 57.1409 64.5819 57.7786 65.2139 58.3819C66.9155 60.0194 68.1274 61.3639 68.1274 61.3639C68.3931 61.5535 68.4417 61.9327 68.2351 62.2085C68.0285 62.4671 67.6465 62.5187 67.3809 62.3119C67.3809 62.3119 65.7678 61.4845 63.7606 60.2435C63.014 59.7953 62.2188 59.2955 61.4565 58.7266C61.1613 58.5026 60.8818 58.2613 60.6075 58.0372C60.1769 57.658 59.7671 57.296 59.3851 56.9168C57.6922 55.2793 56.4889 53.9177 56.4889 53.9177Z" fill="black"/>
<path fill-rule="evenodd" clip-rule="evenodd" d="M67.6644 25.6494C67.4873 25.5115 67.1748 25.3563 66.9439 25.184C66.1625 24.6152 65.0634 23.9257 63.8914 23.2017C62.1239 22.133 60.1844 20.9954 58.8127 20.2198C58.6182 23.1501 58.2467 28.7347 57.8473 34.3367C57.2674 42.4552 56.6319 50.5738 56.6319 50.5738C56.6145 50.9013 56.3297 51.1599 55.9929 51.1426C55.6578 51.1254 55.3991 50.8323 55.4147 50.5048C55.4147 50.5048 55.5832 42.3691 55.8054 34.2333C56.0294 26.0975 56.3072 17.9617 56.3072 17.9617C56.3298 17.5135 56.585 17.0999 56.9826 16.8758C57.3802 16.6689 57.8629 16.6517 58.264 16.8758C58.264 16.8758 63.1135 19.444 66.5028 21.5814C67.6801 22.3226 68.6819 23.0294 69.2879 23.5465C69.7515 23.9429 70.0362 24.3048 70.1595 24.5633C70.2463 24.7357 70.3869 25.253 70.446 26.0803C70.5675 27.7868 70.6231 31.3202 70.5849 35.5088C70.4929 45.713 69.9668 59.7266 69.9668 59.7266C69.965 60.0713 69.689 60.3298 69.3539 60.3298C69.017 60.3298 68.7479 60.0541 68.7496 59.7266C68.7496 59.7266 68.4631 45.713 68.1506 35.5433C68.0464 32.1304 67.9544 29.1657 67.8294 27.3041C67.779 26.5457 67.6766 25.7356 67.6644 25.6494ZM67.6679 25.6494C67.6783 25.6666 67.7078 25.7527 67.72 25.7699C67.7339 25.8044 67.7391 25.8906 67.7704 25.8561C67.8398 25.8044 67.7842 25.7356 67.6679 25.6494Z" fill="black"/>
<path fill-rule="evenodd" clip-rule="evenodd" d="M27.3127 42.1968C27.3145 42.1106 27.3093 42.0244 27.3127 41.9899C27.3075 42.0416 27.2988 42.1277 27.2832 42.2311C27.1652 42.3345 27.1061 42.4036 27.1738 42.4553C27.2068 42.4726 27.2311 42.4726 27.2502 42.4553C26.9967 44.2135 26.0418 50.1946 24.901 56.7963C23.1334 67.0522 20.9509 78.8423 20.9509 78.8423C20.8988 79.1698 20.588 79.3939 20.2563 79.3422C19.9247 79.2905 19.6955 78.9803 19.7476 78.6528C19.7476 78.6528 20.9005 69.4137 22.0986 60.1575C22.5135 56.9342 22.9355 53.7282 23.3175 50.9014C23.9842 45.9889 24.5173 42.2484 24.5555 41.7485C24.5746 41.5072 24.7673 40.9384 25.4167 40.2834C26.3161 39.3698 28.391 37.6979 31.1066 35.6639C34.0566 33.4404 37.7653 30.8032 41.4654 28.2349C49.4073 22.7191 57.2798 17.5307 57.2798 17.5307C57.5524 17.3411 57.9326 17.4101 58.1271 17.6859C58.3215 17.9445 58.2573 18.3236 57.9829 18.5304C57.9829 18.5304 47.7926 26.2181 39.019 32.9232C34.2198 36.6119 29.8425 39.9732 27.9152 41.7314C27.7156 41.9037 27.4707 42.0761 27.3127 42.1968ZM27.3127 42.1968C27.311 42.3174 27.2989 42.4209 27.2502 42.4553C27.2641 42.3692 27.2745 42.3001 27.2832 42.2311C27.2919 42.2139 27.3023 42.214 27.3127 42.1968Z" fill="black"/>
<path fill-rule="evenodd" clip-rule="evenodd" d="M44.3739 78.7044C44.6586 78.894 44.7437 79.2558 44.5649 79.5489C44.386 79.8247 44.011 79.9109 43.7262 79.7386L30.5806 72.2232C30.1882 71.9819 29.9746 71.5339 30.0302 71.0685C30.0302 71.0685 30.3584 67.259 30.9574 62.0534C31.1727 60.2091 31.4349 58.1753 31.7266 56.0724C32.1381 53.1076 32.6156 50.0222 33.067 47.1092C34.2043 39.8008 35.2409 33.6816 35.2409 33.6816C35.2808 33.3541 35.5847 33.1128 35.918 33.1645C36.2514 33.199 36.4893 33.5093 36.4494 33.8368C36.4494 33.8368 35.9631 40.0248 35.2877 47.3849C35.0203 50.3152 34.7304 53.4178 34.4074 56.3998C34.18 58.5027 33.9387 60.5366 33.6938 62.3982C33.1868 66.2592 32.7163 69.3447 32.5097 70.6547L44.3739 78.7044Z" fill="black"/>
<path fill-rule="evenodd" clip-rule="evenodd" d="M46.1208 25.7699C46.1451 25.4252 46.4368 25.1839 46.7719 25.2012C47.1053 25.2356 47.3588 25.5286 47.3345 25.8561C47.3345 25.8561 47.1955 31.8718 46.9056 39.0423C46.7893 41.8864 46.6521 44.9202 46.4785 47.816C46.3569 49.8671 46.2146 51.8495 46.0635 53.6593C45.7405 57.5204 45.4176 60.5884 45.2839 61.8295L56.3928 70.7927C56.6602 70.9995 56.714 71.3788 56.5126 71.6373C56.3095 71.9131 55.9275 71.9649 55.6601 71.758L43.3479 63.2601C43.0319 63.0188 42.8565 62.6397 42.886 62.2432C42.886 62.2432 43.0076 58.52 43.3236 53.4696C43.4382 51.6425 43.5875 49.6604 43.7646 47.6264C44.0164 44.7306 44.322 41.714 44.6223 38.87C45.3794 31.7339 46.1208 25.7699 46.1208 25.7699Z" fill="black"/>
<path fill-rule="evenodd" clip-rule="evenodd" d="M22.66 66.5696C22.3908 66.7764 22.0089 66.7247 21.8074 66.4489C21.606 66.1903 21.6598 65.8112 21.9272 65.6044C21.9272 65.6044 27.348 61.14 33.9026 55.9517C36.5123 53.9005 39.2939 51.7114 41.9973 49.6774C43.9073 48.2295 45.7859 46.8678 47.5049 45.6268C52.3041 42.1622 55.8791 39.7146 55.8791 39.7146C56.2299 39.456 56.7073 39.4216 57.0789 39.6629L67.377 46.5576C67.6618 46.73 67.7503 47.1092 67.5714 47.385C67.3943 47.678 67.0193 47.7641 66.7345 47.5745L56.6205 41.8175C55.4937 42.731 52.6791 44.9718 49.1023 47.7297C47.4267 49.0397 45.5862 50.4359 43.6589 51.8665C40.9312 53.8833 38.0472 55.9171 35.3247 57.8304C28.4836 62.6395 22.66 66.5696 22.66 66.5696Z" fill="black"/>
<path fill-rule="evenodd" clip-rule="evenodd" d="M24.757 52.78C24.4862 52.9696 24.1042 52.9179 23.908 52.6422C23.7118 52.3664 23.7725 51.9871 24.0451 51.7975C24.0451 51.7975 28.2001 48.5052 33.5757 44.3856C36.5882 42.0759 39.9688 39.5077 43.2157 37.1118C45.0354 35.7846 46.8169 34.509 48.4542 33.3714C53.0225 30.1825 56.4343 27.9244 56.4343 27.9244C56.8076 27.6659 57.3059 27.6488 57.6966 27.8901L69.7015 35.9569C69.9862 36.1293 70.073 36.5084 69.8959 36.7842C69.7171 37.06 69.3403 37.1461 69.0573 36.9738L57.1914 30.1997C56.0784 31.0443 53.4184 33.0784 50.0464 35.5605C48.4404 36.7498 46.6693 38.0253 44.8218 39.3181C41.5211 41.6278 37.9964 44.0065 34.845 46.1267C29.2194 49.9015 24.757 52.78 24.757 52.78Z" fill="black"/>
<path fill-rule="evenodd" clip-rule="evenodd" d="M29.2338 19.1855C29.2495 18.8408 29.5343 18.5821 29.8711 18.5994C30.2062 18.6166 30.4666 18.9097 30.451 19.2372C30.451 19.2372 30.6003 21.7537 30.7774 25.2873C30.84 26.5283 30.9059 27.8901 30.9528 29.3207C30.9841 30.3032 31.0101 31.3202 31.0118 32.3372C31.0136 33.3369 30.9858 34.3538 30.9667 35.3363C30.9389 36.9221 30.9042 38.439 30.9146 39.8524C30.9268 41.5761 30.9702 43.0929 31.1351 44.2995C31.2081 44.627 30.9997 44.9545 30.6715 45.0235C30.3434 45.0924 30.0187 44.8855 29.9457 44.558C29.3762 42.6792 28.8762 39.9559 28.5671 36.9566C28.397 35.3019 28.2719 33.5611 28.2355 31.8546C28.2216 31.1651 28.239 30.4928 28.2598 29.8205C28.2928 28.7691 28.3449 27.7522 28.4195 26.7697C28.7494 22.4433 29.2338 19.1855 29.2338 19.1855Z" fill="black"/>
<path fill-rule="evenodd" clip-rule="evenodd" d="M80.6386 9.98097C80.6125 9.65347 80.8626 9.36048 81.1977 9.326C81.5328 9.30877 81.8262 9.55005 81.8505 9.89478C81.8505 9.89478 82.5173 14.0833 83.1562 19.5474C83.3004 20.7885 83.4306 22.0812 83.5469 23.4257C83.6216 24.2703 83.6963 25.1322 83.7397 26.0113C83.8508 28.2003 83.8838 30.4239 83.8855 32.5096C83.8924 36.6809 83.7205 40.3179 83.4948 42.3001C83.4775 42.6448 83.1892 42.8861 82.8541 42.8689C82.519 42.8516 82.262 42.5758 82.2794 42.2311C82.269 40.2833 81.8939 36.7153 81.5172 32.6129C81.3262 30.5445 81.1178 28.3555 80.9685 26.1665C80.9077 25.3046 80.8765 24.4428 80.8435 23.5809C80.7914 22.2537 80.7514 20.9437 80.7289 19.7026C80.6282 14.2041 80.6386 9.98097 80.6386 9.98097Z" fill="black"/>
<path fill-rule="evenodd" clip-rule="evenodd" d="M92.8283 0.603782C92.8231 0.276282 93.0922 0.00049187 93.4273 0.00049187C93.7642 -0.016745 94.0403 0.259112 94.0455 0.586613C94.0455 0.586613 94.4483 5.06827 94.7955 10.8254C94.8754 12.1354 94.9379 13.5142 94.99 14.9104C95.023 15.8239 95.056 16.7376 95.0595 17.6511C95.0716 19.9781 95.0126 22.305 94.9466 24.4768C94.7955 29.4928 94.5455 33.5951 94.4813 34.7328C94.4813 35.0603 94.2087 35.3361 93.8718 35.3361C93.5367 35.3361 93.2641 35.0603 93.2641 34.7328C93.1999 33.5951 92.8543 29.51 92.5748 24.5113C92.455 22.3395 92.3352 20.0126 92.2831 17.6856C92.264 16.7721 92.2727 15.8584 92.2796 14.9449C92.2935 13.5487 92.3195 12.1697 92.3629 10.8597C92.5522 5.1026 92.8283 0.603782 92.8283 0.603782Z" fill="black"/>
<path fill-rule="evenodd" clip-rule="evenodd" d="M38.2082 83.2721C37.9304 83.0825 37.8575 82.7032 38.0467 82.4274C38.236 82.1517 38.6145 82.0828 38.8923 82.2724C38.8923 82.2724 44.5336 85.8232 48.706 88.357C50.734 89.5808 52.3852 90.5805 52.7846 90.7011C53.2482 90.8563 57.6497 91.0631 62.8777 91.3561C66.2705 91.563 70.0018 91.7698 73.2696 91.9939C74.7506 92.0973 76.1362 92.2008 77.3517 92.287C75.3792 90.9597 72.9015 89.2878 70.429 87.6158C64.9544 83.8927 59.5076 80.1521 59.5076 80.1521C59.2263 79.9625 59.1447 79.6007 59.327 79.3076C59.511 79.0319 59.8878 78.9457 60.1691 79.1353C60.1691 79.1353 65.8434 82.531 71.4985 85.9783C77.1537 89.4085 82.7846 92.8903 82.7846 92.8903C83.2725 93.2005 83.4843 93.8039 83.3038 94.3382C83.1214 94.8898 82.5884 95.2517 82.0085 95.2172C82.0085 95.2172 78.8397 95.0965 74.5718 94.838C72.3024 94.7001 69.7223 94.5277 67.1421 94.3209C63.3465 94.0279 59.5527 93.6832 56.7468 93.3902C54.1337 93.1144 52.3314 92.8731 52.0362 92.7524C51.6039 92.58 49.8155 91.4252 47.659 89.9428C43.6307 87.1677 38.2082 83.2721 38.2082 83.2721Z" fill="black"/>
<path fill-rule="evenodd" clip-rule="evenodd" d="M69.3815 34.078C69.0464 34.0953 68.7564 33.854 68.7356 33.5093C68.7147 33.1818 68.97 32.8887 69.3051 32.8715L77.7818 31.7856C78.1898 31.7511 78.5805 31.9407 78.8183 32.2682C79.0545 32.5957 79.1031 33.0267 78.9486 33.4059C78.9486 33.4059 78.2263 35.5087 77.0977 38.3356C76.6931 39.3526 76.2278 40.4557 75.7242 41.5761C75.0124 43.1791 74.2258 44.8166 73.4809 46.3507C71.6057 50.2463 69.9614 53.4695 69.9614 53.4695C69.8329 53.7798 69.477 53.9177 69.1662 53.7971C68.8554 53.6592 68.7078 53.3144 68.8363 53.0041C68.8363 53.0041 69.9649 49.574 71.406 45.5061C71.979 43.8858 72.5902 42.1794 73.2205 40.5419C73.6667 39.4042 74.1199 38.3011 74.554 37.3014C75.1026 36.0431 75.6062 34.9399 75.9934 34.1126L69.3815 34.078Z" fill="black"/>
<path fill-rule="evenodd" clip-rule="evenodd" d="M69.3418 33.4748L77.8549 32.9577L69.3974 53.2283C69.4217 47.6436 69.4321 39.5422 69.3418 33.4748Z" fill="black"/>
<path fill-rule="evenodd" clip-rule="evenodd" d="M97.5314 49.9533C97.3613 49.7809 97.1234 49.5568 96.8873 49.3327C95.8142 48.3674 94.0536 46.9023 92.0308 45.2303C85.9502 40.1972 77.4874 33.4403 77.4874 33.4403C77.22 33.2334 77.1662 32.8542 77.3694 32.5784C77.5725 32.3199 77.9545 32.2682 78.2219 32.4751C78.2219 32.4751 87.1101 38.7148 93.4424 43.455C96.0469 45.4028 98.212 47.1091 99.2 48.0054C99.7018 48.4536 99.9623 48.8156 100.04 48.988C100.112 49.1258 100.188 49.3845 100.167 49.7464C100.153 50.005 100.046 50.5392 99.8355 51.2804C99.457 52.5904 98.7434 54.7623 97.778 57.434C97.1234 59.2439 96.356 61.2779 95.5086 63.4498C93.9841 67.3453 92.2183 71.6717 90.4976 75.7913C86.4607 85.4956 82.653 94.1659 82.653 94.1659C82.5297 94.4761 82.1755 94.6313 81.8629 94.5106C81.5504 94.39 81.3976 94.0279 81.5226 93.7176C81.5226 93.7176 84.7661 84.8234 88.3741 74.9811C89.9108 70.7753 91.5082 66.4145 92.9528 62.5017C93.7532 60.3299 94.5137 58.296 95.1787 56.5033C96.1389 53.9006 96.9116 51.8148 97.3109 50.5393C97.3734 50.3324 97.4637 50.1257 97.5314 49.9533ZM97.5696 49.8498C97.6339 49.6947 97.6564 49.5741 97.5748 49.5741C97.4272 49.5568 97.4915 49.7119 97.5696 49.8498Z" fill="black"/>
<path fill-rule="evenodd" clip-rule="evenodd" d="M65.7763 64.9836C65.4933 64.8113 65.4135 64.4321 65.5958 64.1563C65.7764 63.8633 66.1548 63.7944 66.4361 63.9668C66.4361 63.9668 69.2976 65.3973 72.89 67.3968C73.7078 67.845 74.5551 68.3277 75.4146 68.8448C75.965 69.1723 76.5224 69.5171 77.0641 69.8618C78.4514 70.7754 79.7971 71.7577 81.0368 72.654C84.3479 75.0672 86.8465 77.0668 86.8465 77.0668C87.1295 77.2391 87.2111 77.6183 87.0271 77.8941C86.8465 78.1871 86.468 78.256 86.1867 78.0837C86.1867 78.0837 83.3287 76.6358 79.7502 74.6363C78.408 73.8779 76.9669 73.0679 75.557 72.1888C75.0066 71.844 74.4718 71.4647 73.944 71.1027C73.1192 70.5339 72.3223 69.9824 71.5687 69.4135C68.268 66.9831 65.7763 64.9836 65.7763 64.9836Z" fill="black"/>
<path fill-rule="evenodd" clip-rule="evenodd" d="M71.6281 47.4883C71.359 47.2987 71.3051 46.9196 71.5065 46.6438C71.708 46.3852 72.0899 46.3335 72.3591 46.5231C72.3591 46.5231 75.4601 48.4191 79.3408 50.9702C80.2263 51.5562 81.1431 52.1939 82.0703 52.8317C82.6676 53.2626 83.2701 53.6763 83.8552 54.1245C85.3537 55.2621 86.8069 56.4687 88.1456 57.5718C91.7172 60.5366 94.4172 62.9671 94.4172 62.9671C94.6863 63.174 94.7402 63.5531 94.5387 63.8116C94.3373 64.0702 93.9554 64.1392 93.6862 63.9323C93.6862 63.9323 90.5904 62.0363 86.7219 59.4507C85.2703 58.4855 83.7111 57.4341 82.1884 56.3309C81.5928 55.9 81.0146 55.4345 80.4451 54.9863C79.5544 54.2796 78.6932 53.5902 77.8806 52.9007C74.3211 49.9187 71.6281 47.4883 71.6281 47.4883Z" fill="black"/>
<path fill-rule="evenodd" clip-rule="evenodd" d="M88.3858 41.1797C88.5073 40.8694 88.8615 40.7143 89.1741 40.8349C89.4866 40.9556 89.6411 41.3003 89.5196 41.6106C89.5196 41.6106 87.6027 47.4022 84.9982 54.7451C84.4027 56.4343 83.7585 58.1925 83.0918 59.9679C82.6612 61.1227 82.2271 62.2775 81.7652 63.4324C80.5862 66.3627 79.3448 69.2757 78.1849 71.9646C75.103 79.1179 72.5593 84.6683 72.5593 84.6683C72.4377 84.9785 72.0853 85.1336 71.771 85.013C71.4585 84.8923 71.3039 84.5477 71.4272 84.2202C71.4272 84.2202 73.3528 78.4285 75.9764 71.1028C76.9626 68.3449 78.0391 65.3803 79.1798 62.4155C79.6261 61.2607 80.1001 60.123 80.5672 58.9853C81.2947 57.2272 82.0222 55.5034 82.7306 53.8659C85.8334 46.7299 88.3858 41.1797 88.3858 41.1797Z" fill="black"/>
<path fill-rule="evenodd" clip-rule="evenodd" d="M57.8146 78.2559C58.0316 77.8422 58.4397 76.9633 58.9831 75.8946C59.6047 74.6536 60.3739 73.1538 61.1605 71.6542C63.0201 68.1207 64.9387 64.6388 64.9387 64.6388C65.0759 64.3458 65.4353 64.208 65.7426 64.3459C66.0482 64.4838 66.1871 64.8285 66.0499 65.1387C66.0499 65.1387 64.3188 69.9479 62.6642 74.0847C62.1415 75.3775 61.6189 76.6185 61.1744 77.601C60.5649 78.9627 60.0684 79.9107 59.9329 80.1003C59.7836 80.3071 59.4954 80.6001 58.9588 80.7553C58.4432 80.8932 57.3441 81.0139 55.9359 80.9967C54.2257 80.9794 52.0188 80.8415 49.9282 80.6519C47.3672 80.4106 45.0058 80.0658 43.9519 79.8072C43.6203 79.7555 43.3963 79.4453 43.4518 79.1178C43.5074 78.7903 43.8199 78.5663 44.1516 78.618C45.4816 78.7559 48.8726 78.7041 52.0622 78.6007C54.085 78.5317 56.0123 78.4283 57.259 78.2904C57.4361 78.256 57.6444 78.2732 57.8146 78.2559ZM57.8372 78.2559C58.0299 78.2559 58.1653 78.2216 58.1341 78.1354C58.0803 77.9803 57.9483 78.1008 57.8372 78.2559ZM57.7017 78.4628C57.6896 78.48 57.6809 78.4972 57.6722 78.5145C57.6809 78.4972 57.6913 78.48 57.7017 78.4628Z" fill="black"/>
<path fill-rule="evenodd" clip-rule="evenodd" d="M65.4943 64.8976C65.4943 64.8976 59.339 78.5493 58.8025 79.3077C58.266 80.0489 46.7716 79.6697 44.0508 79.2215C51.7548 74.1884 61.2334 67.7761 65.4943 64.8976Z" fill="black"/>
<path fill-rule="evenodd" clip-rule="evenodd" d="M48.522 80.1004C48.2494 79.8935 48.1852 79.5317 48.3814 79.2559C48.5759 78.9801 48.9561 78.911 49.2304 79.1178C49.2304 79.1178 51.9009 80.6002 55.2468 82.6514C56.009 83.1168 56.7955 83.6168 57.5925 84.1339C58.1047 84.4786 58.6204 84.8233 59.1222 85.1853C60.4036 86.116 61.6399 87.0985 62.7807 88.0293C65.8227 90.4942 68.1077 92.5109 68.1077 92.5109C68.3803 92.7178 68.4445 93.0798 68.2483 93.3556C68.0538 93.6314 67.6718 93.7003 67.3992 93.4935C67.3992 93.4935 64.7323 92.0112 61.4003 89.9427C60.1519 89.1671 58.8114 88.3224 57.5074 87.426C56.997 87.0813 56.5039 86.7022 56.016 86.323C55.2572 85.7542 54.5227 85.1681 53.8317 84.5993C50.7983 82.1344 48.522 80.1004 48.522 80.1004Z" fill="black"/>
<path fill-rule="evenodd" clip-rule="evenodd" d="M41.5861 81.1002C41.3066 80.9278 41.2302 80.5486 41.416 80.2729C41.6018 79.9971 41.9803 79.9109 42.2598 80.1005C42.2598 80.1005 44.465 81.1519 47.2309 82.6515C47.8595 82.9962 48.5054 83.3755 49.1617 83.7547C49.5819 84.0133 50.0073 84.2718 50.4153 84.5476C51.464 85.2715 52.4676 86.0301 53.3931 86.754C55.8725 88.6845 57.7096 90.2876 57.7096 90.2876C57.9891 90.4772 58.0655 90.8563 57.8797 91.1321C57.6939 91.4079 57.3154 91.4769 57.0359 91.2873C57.0359 91.2873 54.8342 90.2358 52.0804 88.7189C51.0525 88.1501 49.95 87.5297 48.8787 86.8402C48.462 86.5816 48.0591 86.2886 47.6615 85.9955C47.0417 85.5646 46.4461 85.1164 45.8853 84.6683C43.4162 82.7205 41.5861 81.1002 41.5861 81.1002Z" fill="black"/>
<path fill-rule="evenodd" clip-rule="evenodd" d="M42.8934 86.3058C42.5583 86.2713 42.303 85.9956 42.3256 85.6508C42.3482 85.3233 42.6381 85.0647 42.9733 85.0992C42.9733 85.0992 46.2514 84.9785 50.4602 84.9785C51.4204 84.9785 52.424 85.0131 53.4484 85.0475C54.1065 85.0648 54.7715 85.082 55.4365 85.1337C57.1346 85.2716 58.8241 85.4784 60.3867 85.668C64.5591 86.1851 67.7956 86.7367 67.7956 86.7367C68.1307 86.7539 68.3859 87.047 68.3634 87.3745C68.3408 87.702 68.0508 87.9605 67.7157 87.9433C67.7157 87.9433 64.4358 88.0468 60.2305 88.0123C58.6539 88.0123 56.9541 87.9778 55.2525 87.8916C54.5875 87.8571 53.9242 87.7882 53.2696 87.7192C52.2486 87.6331 51.2503 87.5123 50.2988 87.3917C46.1264 86.8573 42.8934 86.3058 42.8934 86.3058Z" fill="black"/>
<path fill-rule="evenodd" clip-rule="evenodd" d="M101.089 107.628C101.089 107.628 83.5054 113.816 73.3844 117.418C69.6513 118.763 66.9427 119.728 66.552 119.901C66.3801 119.969 65.8696 120.056 65.0657 119.952C63.602 119.797 60.5895 119.211 56.7887 118.401C50.5796 117.074 42.2384 115.143 35.1369 113.454C27.6898 111.678 21.6127 110.179 20.7949 109.989C19.9875 109.817 19.7271 109.3 19.6264 108.955C19.5153 108.593 19.4979 108.076 19.9563 107.559C20.0865 107.421 20.3452 107.197 20.7637 106.99C21.1804 106.783 21.8506 106.507 22.7135 106.18C28.775 103.991 44.9818 99.6126 46.3569 99.4575C47.1122 99.3713 51.7152 99.3024 56.872 99.268C63.7218 99.2162 71.556 99.2162 72.4763 99.2334C73.0475 99.2334 76.7077 100.095 81.2446 101.25C89.6085 103.388 101.044 106.473 101.044 106.473C101.306 106.542 101.49 106.766 101.5 107.042C101.511 107.3 101.342 107.542 101.089 107.628ZM25.1774 108.231C27.4363 108.783 30.5165 109.541 33.9857 110.403C39.8562 111.868 46.8379 113.609 52.8177 115.04C58.176 116.332 62.7199 117.384 64.9129 117.729C65.2028 117.78 65.5102 117.884 65.7081 117.918C65.762 117.884 65.8887 117.78 65.9147 117.832C67.2257 117.367 73.1291 115.419 79.7219 113.264C86.9397 110.92 94.9841 108.317 98.6616 107.145C94.965 106.249 87.0509 104.353 80.8314 102.922C76.5011 101.94 73.018 101.164 72.4763 101.164C71.438 101.181 61.5965 101.405 54.3162 101.612C50.4129 101.716 47.2563 101.819 46.6521 101.905C45.4141 102.06 31.8795 105.921 25.1774 108.231ZM65.9147 117.832C65.8227 117.867 65.755 117.901 65.7081 117.918C65.8401 117.936 65.9234 117.918 65.9182 117.849C65.9182 117.849 65.9165 117.832 65.9147 117.832ZM65.7081 117.918C65.7029 117.918 65.6994 117.918 65.696 117.918C65.6994 117.918 65.7047 117.918 65.7081 117.918Z" fill="black"/>
<path fill-rule="evenodd" clip-rule="evenodd" d="M100.89 107.059C100.89 107.059 67.5878 118.28 66.1206 118.901C64.6552 119.538 23.3222 109.127 21.0875 108.645C18.8547 108.162 44.757 100.888 46.502 100.681C48.247 100.474 70.8677 100.199 72.4738 100.199C74.0799 100.199 100.89 107.059 100.89 107.059Z" fill="black"/>
</g>
<defs>
<clipPath id="clip0_8271_4589">
<rect width="82.5" height="120" fill="white" transform="translate(19)"/>
</clipPath>
</defs>
</svg>
